<ttFont>
          <CharString index="0">
            172 246 rmoveto
            103 57 59 68 36 34 -12 -33 35 vhcurveto
            -221 vlineto
            -40 -34 -36 -19 -41 hhcurveto
            -75 -44 57 106 hvcurveto
            -119 -1 rmoveto
            -162 85 -95 125 54 57 31 38 37 vhcurveto
            3 hlineto
            return
          </CharString>
          <CharString index="1">
            300 -12 rmoveto
            152 105 130 212 211 -105 125 -152 -152 -105 -125 -211 -212 105 -130 152 hvcurveto
            101 vmoveto
            -84 -54 94 147 146 54 89 84 84 54 -89 -146 -147 -54 -94 -84 hvcurveto
            return
          </CharString>
          <CharString index="2">
            -331 hlineto
            -54 -44 -33 -19 -46 hhcurveto
            -68 -24 36 79 hvcurveto
            289 -115 -304 vlineto
            -127 50 -72 114 73 55 36 54 46 vhcurveto
            4 hlineto
            return
          </CharString>
          <CharString index="3">
            -242 -17 -97 -55 -110 vvcurveto
            111 9 rmoveto
            53 52 36 176 12 vhcurveto
            -104 vlineto
            -36 -45 -46 -24 -49 hhcurveto
            -49 -39 19 44 hvcurveto
            return
          </CharString>
          <CharString index="4">
            89 -102 rmoveto
            -22 -90 rlineto
            -6 19 25 -4 26 hhcurveto
            118 59 69 111 42 hvcurveto
            205 513 rlineto
            -109 hlineto
            -89 -241 -16 -46 -18 -51 -15 -47 rlinecurve
            -4 hlineto
            -18 49 -18 51 -18 44 -101 241 rcurveline
            -115 hlineto
            220 -485 -12 -31 rlineto
            -49 -20 -36 -35 -62 hhcurveto
            -14 -14 3 4 -13 hvcurveto
            return
          </CharString>
          <CharString index="5">
            48 325 rmoveto
            -217 126 -120 166 84 73 36 42 43 vhcurveto
            288 -218 -95 113 -141 vlineto
            -19 -19 -34 -10 -35 hhcurveto
            -116 -63 90 149 147 73 90 104 57 34 -22 -31 30 hvcurveto
            64 72 rlineto
            41 -39 -59 41 -87 hhcurveto
            -170 -127 -126 -215 hvcurveto
            return
          </CharString>
          <CharString index="6">
            62 64 rmoveto
            -42 61 88 -34 92 hhcurveto
            149 81 68 84 81 -74 37 -114 30 hvcurveto
            -79 20 -59 19 35 vvcurveto
            31 27 23 76 56 50 -20 -29 44 vhcurveto
            53 71 rlineto
            33 -50 -74 32 -80 hhcurveto
            -139 -78 -61 -86 -74 87 -42 94 -25 hvcurveto
            99 -26 46 -21 -34 vvcurveto
            -34 -35 -25 -77 -76 -59 24 38 -55 vhcurveto
            return
          </CharString>
          <CharString index="7">
            242 hmoveto
            116 227 hlineto
            215 427 138 callsubr
            -81 -175 -22 -51 -23 -48 -24 -53 rlinecurve
            -4 hlineto
            -23 53 -21 48 -23 50 -82 176 rcurveline
            -123 hlineto
            215 -427 rlineto
            return
          </CharString>
          <CharString index="8">
            vstem
            101 hmoveto
            121 hlineto
            55 239 9 41 7 42 6 39 rlinecurve
            3 hlineto
            5 -39 7 -42 9 -41 58 -239 rcurveline
            123 hlineto
            89 654 rlineto
            -110 hlineto
            -34 -379 -3 -53 -4 -55 -3 -56 rlinecurve
            -4 hlineto
            -11 56 -15 55 -11 53 -56 212 rcurveline
            -74 hlineto
            -57 -212 -12 -54 -15 -55 -11 -55 rlinecurve
            -3 hlineto
            -3 55 -4 54 -3 55 -36 379 rcurveline
            -117 hlineto
            return
          </CharString>
          <CharString index="9">
            104 hmoveto
            428 98 -312 193 256 98 -256 167 302 98 -418 hlineto
            return
          </CharString>
          <CharString index="10">
            71 132 rmoveto
            -86 68 -58 96 66 66 33 40 52 vhcurveto
            3 hlineto
            return
          </CharString>
          <CharString index="11">
            rmoveto
            60 64 69 callgsubr
            -64 rlineto
            90 hlineto
            -96 -29 callgsubr
            -112 hlineto
            -96 -116 rlineto
            return
          </CharString>
          <CharString index="12">
            190 198 rmoveto
            -126 51 -84 149 59 55 13 15 44 vhcurveto
            -22 84 rlineto
            -12 -32 -34 -8 -42 hhcurveto
            -83 -30 37 81 hvcurveto
            202 224 91 -224 134 -95 vlineto
            -15 -134 -136 -5 rlineto
            -86 131 vlineto
            return
          </CharString>
          <CharString index="13">
            rmoveto
            165 201 -42 39 -185 -181 rlineto
            494 535 rmoveto
            -165 -201 42 -39 185 181 rlineto
            return
          </CharString>
          <CharString index="14">
            vstem
            73 163 callgsubr
            117 -94 154 70 73 25 49 56 vhcurveto
            -48 74 rlineto
            -29 -38 -46 -25 -56 hhcurveto
            -97 -66 65 98 99 68 65 98 44 39 -16 -31 38 hvcurveto
            55 72 rlineto
            39 -41 -62 30 -79 hhcurveto
            -150 -129 -94 -164 hvcurveto
            return
          </CharString>
          <CharString index="15">
            47 35 30 47 46 -35 32 -47 return
          </CharString>
          <CharString index="16">
            rmoveto
            -46 callsubr
            -45 11 hvcurveto
            hintmask 11110000
            39 14 16 52 callsubr
            -64 -50 -46 -17 -26 -28 vhcurveto
            36 -50 rlineto
            16 20 27 13 23 hhcurveto
            31 16 -14 -20 -28 -25 -14 -46 hvcurveto
            hintmask 11101000
            -47 vlineto
            58 26 -14 -29 -26 -22 -12 -29 -32 -34 17 20 -21 hvcurveto
            endchar
          </CharString>
          <CharString index="17">
            rmoveto
            84 hlineto
            58 58 -9 callsubr
            58 -58 rlineto
            84 hlineto
            -94 110 rlineto
            -100 hlineto
            return
          </CharString>
          <CharString index="18">
            rmoveto
            26 17 17 29 27 27 -15 -44 7 vhcurveto
            -18 -20 -19 -8 -20 hhcurveto
            -33 -15 16 26 hvcurveto
            -73 -188 rmoveto
            -22 27 32 -15 42 hhcurveto
            99 60 71 102 96 -57 63 -86 -70 -51 -48 -60 -58 37 -36 64 33 28 11 20 23 hvcurveto
            -59 -5 -27 -38 -53 hhcurveto
            -25 -20 10 13 -17 hvcurveto
            endchar
          </CharString>
          <CharString index="19">
            -45 callsubr
            -48 -34 -32 -46 -47 34 -30 48 hvcurveto
            endchar
          </CharString>
          <CharString index="20">
            102 -26 111 hintmask 1011101100010000
            -20 callsubr
            hintmask 1101101010001000
            -67 callgsubr
            hintmask 1011101100010000
            -53 callgsubr
            hintmask 1011101001001000
            -88 callgsubr
            hintmask 1011101010010000
            -70 callsubr
            hintmask 1011011010010000
            -73 callsubr
            hintmask 1011101001010000
            -54 callsubr
            hintmask 1011101100010000
            54 callsubr
            hintmask 1011011010010000
            -79 callgsubr
            return
          </CharString>
          <CharString index="21">
            rmoveto
            31 23 22 31 31 52 callgsubr
            -31 -31 22 -22 31 hvcurveto
            165 callsubr
            22 22 31 31 56 callgsubr
            -31 -31 23 -22 31 hvcurveto
            return
          </CharString>
          <CharString index="22">
            rmoveto
            103 50 56 84 104 vvcurveto
            88 -40 53 -64 -49 -36 -36 -54 -48 34 -33 47 8 8 1 3 8 vhcurveto
            -5 -66 -38 -49 -65 -34 rrcurveto
            return
          </CharString>
          <CharString index="23">
            rmoveto
            83 61 64 104 104 -61 60 -83 -83 -61 -60 -104 -104 61 -64 83 hvcurveto
            64 vmoveto
            -34 -28 31 73 74 28 26 34 34 28 -26 -74 -73 -28 -31 -34 hvcurveto
            return
          </CharString>
          <CharString index="24">
            108 hstem
            -63 callsubr
            vstem
            return
          </CharString>
          <CharString index="25">
            -87 callgsubr
            -162 108 return
          </CharString>
          <CharString index="26">
            rmoveto
            -47 -35 -32 -46 -47 35 -30 47 -92 callsubr
            hvcurveto
            -85 353 rmoveto
            23 80 20 69 20 74 18 73 rlinecurve
            4 hlineto
            19 -72 20 -75 19 -69 23 -80 rcurveline
            199 -268 rmoveto
            -212 654 rlineto
            -136 hlineto
            -212 -654 rlineto
            118 hlineto
            51 177 rlineto
            218 hlineto
            50 -177 rlineto
            endchar
          </CharString>
          <CharString index="27">
            126 -74 rmoveto
            -40 -80 rlineto
            -36 56 74 -16 59 hhcurveto
            157 86 77 128 hvcurveto
            return
          </CharString>
          <CharString index="28">
            -94 callsubr
            -200 -481 rmoveto
            19 14 18 23 12 vhcurveto
            37 -11 33 -12 -29 vvcurveto
            -21 -25 -15 -28 -30 -24 16 23 vhcurveto
            hintmask 0100001100000000
            70 102 rmoveto
            -34 10 -25 11 24 vvcurveto
            18 17 14 25 28 16 -15 -20 -16 -8 -14 -19 -12 vhcurveto
            hintmask 1000010010000000
            -146 -108 rmoveto
            -49 52 -41 78 75 55 40 50 45 -28 21 -35 16 vhcurveto
            4 vlineto
            hintmask 0100001100000000
            28 14 25 19 36 vvcurveto
            52 -52 35 -68 -65 -55 -35 -52 -38 23 -15 30 -19 vhcurveto
            -4 vlineto
            hintmask 1000010010000000
            -32 -17 -31 -21 -41 vvcurveto
            endchar
          </CharString>
          <CharString index="29">
            75 hmoveto
            175 hlineto
            187 115 113 217 216 -115 108 -193 hvcurveto
            -169 hlineto
            116 -560 rmoveto
            466 46 vlineto
            125 71 -70 -160 -161 -71 -75 -125 hvcurveto
            return
          </CharString>
          <CharString index="30">
            rmoveto
            -26 -28 16 43 -8 hvcurveto
            18 21 18 8 21 hhcurveto
            33 15 -16 -25 -27 -17 -17 -29 hvcurveto
            119 232 rmoveto
            21 -27 -32 15 -42 hhcurveto
            -99 -60 -71 -101 -96 57 -64 86 70 51 48 60 59 -37 35 -64 -34 -28 -12 -19 -23 hvcurveto
            60 5 28 37 53 hhcurveto
            25 20 -9 -14 17 hvcurveto
            endchar
          </CharString>
          <CharString index="31">
            9 -57 rlineto
            95 491 -91 hlineto
            return
          </CharString>
          <CharString index="32">
            -54 callgsubr
            256 98 hlineto
            140 -256 rlineto
            return
          </CharString>
          <CharString index="33">
            -50 -6 vhcurveto
            10 -47 callsubr
            return
          </CharString>
          <CharString index="34">
            8 -22 -26 4 -29 hhcurveto
            -108 -94 -64 -113 -58 28 -44 35 -24 hvcurveto
            -4 vlineto
            return
          </CharString>
          <CharString index="35">
            69 -9 callsubr
            52 -69 rlineto
            74 hlineto
            -82 124 rlineto
            return
          </CharString>
          <CharString index="36">
            -73 11 -83 5 -67 vhcurveto
            -3 hlineto
            -61 139 -175 368 rlineto
            -118 hlineto
            return
          </CharString>
          <CharString index="37">
            110 86 57 109 34 -16 30 -17 20 hvcurveto
            115 85 -201 hlineto
            return
          </CharString>
          <CharString index="38">
            84 39 173 callsubr
            -66 hlineto
            -29 -6 -18 -25 -40 hhcurveto
            -40 -18 25 29 -6 hvcurveto
            -66 hlineto
            -64 7 39 -51 84 hhcurveto
            endchar
          </CharString>
          <CharString index="39">
            -32 -8 -19 -26 -46 hhcurveto
            -46 -19 26 32 -8 hvcurveto
            -56 hlineto
            -63 7 40 -50 82 hhcurveto
            return
          </CharString>
          <CharString index="40">
            rmoveto
            44 67 39 63 rlineto
            3 120 callsubr
            127 hmoveto
            -51 187 -103 hlineto
            -134 -200 rlineto
            -41 161 -67 76 67 51 vlineto
            endchar
          </CharString>
          <CharString index="41">
            -12 -76 callgsubr
            return
          </CharString>
          <CharString index="42">
            hlineto
            -60 -97 rlineto
            -4 hlineto
            -60 97 rlineto
            return
          </CharString>
          <CharString index="43">
            vstem
            71 hmoveto
            466 92 -305 hlineto
            296 338 rlineto
            61 -423 -91 261 vlineto
            -295 -338 rlineto
            return
          </CharString>
          <CharString index="44">
            138 108 80 callgsubr
            return
          </CharString>
          <CharString index="45">
            -240 155 return
          </CharString>
          <CharString index="46">
            rmoveto
            250 70 -114 hlineto
            hintmask 11010000
            54 49 47 46 50 vvcurveto
            66 -48 39 -76 -50 -42 -26 -36 -33 vhcurveto
            50 -45 rlineto
            24 18 23 14 22 hhcurveto
            34 19 -19 -31 hvcurveto
            hintmask 11100000
            -39 -61 -50 -93 -66 vhcurveto
            endchar
          </CharString>
          <CharString index="47">
            99 -66 -19 callgsubr
            return
          </CharString>
          <CharString index="48">
            rmoveto
            -102 39 -73 67 -70 vhcurveto
            63 41 rlineto
            -57 61 -27 68 75 vvcurveto
            76 27 68 57 61 vhcurveto
            -63 41 rlineto
            -67 -70 -39 -73 -103 vvcurveto
            endchar
          </CharString>
          <CharString index="49">
            0 callgsubr
            -35 -11 -50 -6 vhcurveto
            9 -47 callsubr
            47 -30 110 callsubr
          </CharString>
          <CharString index="50">
            rmoveto
            -104 -50 -56 -84 -104 vvcurveto
            -88 41 -53 63 50 35 36 54 48 -33 33 -48 -7 -8 -1 -3 -7 vhcurveto
            4 66 38 49 65 34 rrcurveto
            return
          </CharString>
          <CharString index="51">
            89 137 78 122 89 return
          </CharString>
          <CharString index="52">
            rmoveto
            -126 hlineto
            -84 -116 rlineto
            93 hlineto
            return
          </CharString>
          <CharString index="53">
            -36 -25 -23 -35 -33 vvcurveto
            -41 24 -26 26 -15 vhcurveto
            -4 vlineto
            return
          </CharString>
          <CharString index="54">
            0 -49 callsubr
            return
          </CharString>
          <CharString index="55">
            88 hlineto
            hintmask 11000000
            6 105 16 68 80 90 rrcurveto
            45 -253 -70 vlineto
            hintmask 10100000
            158 hlineto
            -61 -81 -28 -60 -6 -97 rrcurveto
            endchar
          </CharString>
          <CharString index="56">
            rmoveto
            94 42 73 72 3 42 callgsubr
            -44 -22 37 43 -6 hvcurveto
            -66 hlineto
            -72 3 42 -73 93 hhcurveto
            return
          </CharString>
          <CharString index="57">
            rmoveto
            -80 -48 65 98 99 48 65 80 80 48 -65 -99 -98 -48 -65 -80 hvcurveto
            return
          </CharString>
          <CharString index="58">
            98 193 98 167 98 return
          </CharString>
          <CharString index="59">
            0 94 217 59 190 94 hstem
            81 116 242 119 vstem
            81 hmoveto
            175 hlineto
            186 116 113 217 216 -116 108 -192 hvcurveto
            -169 -284 hlineto
            -72 -5 rlineto
            -54 72 vlineto
            116 -217 rmoveto
            217 125 59 -125 190 46 vlineto
            124 72 -70 -160 -161 -72 -75 -124 hvcurveto
            endchar
          </CharString>
          <CharString index="60">
            -50 rlineto
            85 6 76 29 63 vvcurveto
            return
          </CharString>
          <CharString index="61">
            -34 40 48 -14 44 hhcurveto
            70 57 38 58 40 -23 26 return
          </CharString>
          <CharString index="62">
            rmoveto
            -92 callsubr
            return
          </CharString>
          <CharString index="63">
            84 400 rmoveto
            213 -397 hlineto
            -77 -24 -41 -84 -32 -36 8 17 -37 vhcurveto
            -35 -83 rlineto
            -19 40 49 -14 57 hhcurveto
            168 49 95 120 hvcurveto
            482 -328 vlineto
            return
          </CharString>
          <CharString index="64">
            rmoveto
            -6 callgsubr
            -40 -27 -30 -38 -38 27 -29 40 hvcurveto
            205 hmoveto
            -41 callgsubr
            endchar
          </CharString>
          <CharString index="65">
            rmoveto
            85 -31 callsubr
            return
          </CharString>
          <CharString index="66">
            -38 36 rmoveto
            28 5 14 12 18 30 25 -40 52 hhcurveto
            132 callsubr
            -28 -5 -14 -12 -18 -30 -25 75 callgsubr
            endchar
          </CharString>
          <CharString index="67">
            67 66 4 hvcurveto
            -55 hlineto
            -40 -6 -24 -34 -48 hhcurveto
            -48 -24 34 40 -6 hvcurveto
            -55 hlineto
            return
          </CharString>
          <CharString index="68">
            138 108 108 -62 callgsubr
            return
          </CharString>
          <CharString index="69">
            246 -62 callgsubr
            return
          </CharString>
          <CharString index="70">
            148 callsubr
            116 return
          </CharString>
          <CharString index="71">
            577 73 -19 73 hstemhm
            144 61 -61 312 -61 61 hintmask 10100000
            144 577 rmoveto
            61 hlineto
            hintmask 01100000
            99 callgsubr
            hintmask 10010000
            31 127 callgsubr
            hintmask 01001000
            57 -10 callsubr
            hintmask 10001000
            100 callgsubr
            hintmask 01010000
            78 callsubr
            hintmask 10100000
            -57 29 callsubr
          </CharString>
          <CharString index="72">
            114 callgsubr
            -47 -35 -32 -46 110 callgsubr
          </CharString>
          <CharString index="73">
            vvcurveto
            29 -12 26 -14 18 vhcurveto
            endchar
          </CharString>
          <CharString index="74">
            58 -70 callgsubr
            -48 -38 -12 -46 -4 vhcurveto
            hintmask 11111000
            -83 callgsubr
            hintmask 11111100
            -21 callgsubr
          </CharString>
          <CharString index="75">
            95 vstem
            73 hmoveto
            94 290 hlineto
            62 -10 125 -5 62 vhcurveto
            3 hlineto
            46 -160 70 -203 rlineto
            56 hlineto
            69 203 47 160 rlineto
            3 hlineto
            -5 -62 -9 -125 -62 vvcurveto
            -290 95 654 -120 vlineto
            -77 -254 -27 -99 rlineto
            -3 hlineto
            -28 99 -79 254 138 callsubr
            return
          </CharString>
          <CharString index="76">
            -72 callgsubr
            86 48 callgsubr
            return
          </CharString>
          <CharString index="77">
            40 14 15 52 callsubr
            -63 -51 -45 -17 -26 -28 vhcurveto
            36 -50 rlineto
            16 20 27 13 23 hhcurveto
            31 15 -14 -20 -28 -24 -14 -46 hvcurveto
            return
          </CharString>
          <CharString index="78">
            rmoveto
            -205 123 -129 153 153 123 129 205 206 -123 124 -153 -153 -123 -124 -206 vhcurveto
            56 hmoveto
            170 88 109 132 132 88 -109 -170 -169 -88 -113 -132 -132 -88 113 169 vhcurveto
            return
          </CharString>
          <CharString index="79">
            23 -31 -31 -23 -23 -30 -30 23 -24 31 hvcurveto
            return
          </CharString>
          <CharString index="80">
            50 callgsubr
            93 callgsubr
            return
          </CharString>
          <CharString index="81">
            49 callsubr
            -24 callsubr
            return
          </CharString>
          <CharString index="82">
            -12 -56 callsubr
            return
          </CharString>
          <CharString index="83">
            -54 246 rmoveto
            return
          </CharString>
          <CharString index="84">
            rmoveto
            94 41 73 72 4 hvcurveto
            -67 hlineto
            -43 -5 -22 -37 -45 -1 callgsubr
          </CharString>
          <CharString index="85">
            242 hmoveto
            116 556 206 98 -528 -98 206 hlineto
            return
          </CharString>
          <CharString index="86">
            62 15 44 35 64 vvcurveto
            29 -12 25 -14 18 vhcurveto
            endchar
          </CharString>
          <CharString index="87">
            158 -71 rmoveto
            23 13 21 35 21 vhcurveto
            return
          </CharString>
          <CharString index="88">
            hstem
            -87 callgsubr
            vstem
            192 -400 rmoveto
            216 return
          </CharString>
          <CharString index="89">
            rmoveto
            93 hlineto
            -84 -29 callgsubr
            -126 hlineto
            endchar
          </CharString>
          <CharString index="90">
            rmoveto
            90 39 -7 callgsubr
            return
          </CharString>
          <CharString index="91">
            90 49 -26 -75 -74 -49 -38 -90 hvcurveto
            -90 hlineto
            return
          </CharString>
          <CharString index="92">
            67 8 58 27 63 vvcurveto
            53 -47 30 -106 4 166 callgsubr
            56 -3 25 73 callgsubr
            endchar
          </CharString>
          <CharString index="93">
            95 -62 -21 408 63 callgsubr
            119 return
          </CharString>
          <CharString index="94">
            -7 18 -11 -23 vvcurveto
            -24 return
          </CharString>
          <CharString index="95">
            vlineto
            -162 -20 -95 -47 -104 vvcurveto
            -80 56 -56 72 53 46 30 36 27 vhcurveto
            4 hlineto
            9 -54 rlineto
            64 hlineto
            -244 126 rmoveto
            53 43 28 116 17 vhcurveto
            -109 vlineto
            -31 -30 -31 -19 -32 hhcurveto
            -41 -25 23 38 hvcurveto
            endchar
          </CharString>
          <CharString index="96">
            -208 71 hstem
            224 80 vstem
            224 -120 rmoveto
            7 callsubr
            13 29 35 21 32 40 31 hvcurveto
            -71 hlineto
            -29 -22 -41 -45 -56 vvcurveto
            endchar
          </CharString>
          <CharString index="97">
            36 47 80 9 hvcurveto
            -61 hlineto
            return
          </CharString>
          <CharString index="98">
            rlineto
            4 hlineto
            return
          </CharString>
          <CharString index="99">
            -300 hlineto
            endchar
          </CharString>
          <CharString index="100">
            57 218 57 hstemhm
            170 77 -67 77 87 76 -67 77 hintmask 11100100
            247 return
          </CharString>
          <CharString index="101">
            24 callsubr
            70 158 return
          </CharString>
          <CharString index="102">
            rmoveto
            77 hlineto
            57 62 -9 callsubr
            57 -62 rlineto
            77 hlineto
            -84 108 rlineto
            return
          </CharString>
          <CharString index="103">
            522 71 hstem
            165 85 130 84 vstem
            165 260 rmoveto
            85 223 hlineto
            25 27 19 14 28 hhcurveto
            41 15 -22 -48 hvcurveto
            -192 84 203 vlineto
            82 -33 48 -74 -49 -35 -24 return
          </CharString>
          <CharString index="104">
            rmoveto
            -121 hlineto
            -89 -158 rlineto
            85 hlineto
            endchar
          </CharString>
          <CharString index="105">
            86 308 -67 hlineto
            -30 -18 -23 -9 -47 -7 rrcurveto
            -53 81 vlineto
            endchar
          </CharString>
          <CharString index="106">
            -77 callgsubr
            -44 callgsubr
            return
          </CharString>
          <CharString index="107">
            45 callgsubr
            215 115 return
          </CharString>
          <CharString index="108">
            28 5 14 12 18 hhcurveto
            hintmask 1010110101000000
            30 20 -40 52 hhcurveto
            hintmask 1010101101000000
            132 callsubr
            hintmask 1010110101000000
            -28 -5 -14 -12 -18 hhcurveto
            hintmask 1010101010100000
            -30 -21 40 -51 hhcurveto
            return
          </CharString>
          <CharString index="109">
            hstem
            389 116 vstem
            70 96 rmoveto
            -78 51 80 -30 73 hhcurveto
            172 59 103 125 hvcurveto
            438 -381 -97 265 -331 vlineto
            -99 -38 -39 -80 -47 -47 27 52 -37 vhcurveto
            return
          </CharString>
          <CharString index="110">
            55 152 51 hstem
            300 76 vstem
            272 803 rmoveto
            57 7 47 21 55 vvcurveto
            46 -39 28 -94 3 vhcurveto
            -11 -51 rlineto
            49 -4 19 -10 -22 vvcurveto
            -19 -17 -8 -22 -5 vhcurveto
            return
          </CharString>
          <CharString index="111">
            rmoveto
            51 -45 162 157 rlineto
            114 vlineto
            -162 157 -51 -46 127 -168 rlineto
            return
          </CharString>
          <CharString index="112">
            rmoveto
            43 callgsubr
            -28 -30 -38 -38 28 -29 39 hvcurveto
            205 hmoveto
            40 16 callgsubr
            -40 -39 -27 -30 -38 -38 27 -29 39 hvcurveto
            endchar
          </CharString>
          <CharString index="113">
            rmoveto
            60 43 36 57 56 -43 37 -60 -61 -42 -37 -56 -57 42 -36 61 hvcurveto
            46 vmoveto
            -25 -19 17 30 29 19 18 25 24 20 -18 -29 -30 -20 -17 -24 hvcurveto
            endchar
          </CharString>
          <CharString index="114">
            13 callsubr
            -10 -14 -5 -14 hhcurveto
            -22 -22 return
          </CharString>
          <CharString index="115">
            64 66 53 85 64 hstem
            168 77 108 79 vstem
            245 return
          </CharString>
          <CharString index="116">
            166 callgsubr
            57 -3 return
          </CharString>
          <CharString index="117">
            hstemhm
            62 96 -72 109 -105 93 return
          </CharString>
          <CharString index="118">
            -38 hhcurveto
            -74 -69 -64 -107 hvcurveto
            86 1 rmoveto
            66 34 36 41 23 22 -7 -18 22 vhcurveto
            -146 vlineto
            -24 -21 -22 -9 -25 hhcurveto
            -47 -27 34 68 hvcurveto
            endchar
          </CharString>
          <CharString index="119">
            288 84 hstem
            78 444 vstem
            78 288 rmoveto
            444 84 -444 hlineto
            endchar
          </CharString>
          <CharString index="120">
            -58 43 -30 55 28 40 12 18 22 vhcurveto
            -26 54 rlineto
            -8 return
          </CharString>
          <CharString index="121">
            rmoveto
            90 hlineto
            -16 callsubr
            return
          </CharString>
          <CharString index="122">
            35 callsubr
            0 return
          </CharString>
          <CharString index="123">
            hstem
            242 116 vstem
            return
          </CharString>
          <CharString index="124">
            78 callgsubr
            152 296 vstem
            251 573 rmoveto
            98 -31 callgsubr
            -86 hlineto
            endchar
          </CharString>
          <CharString index="125">
            124 41 70 87 122 vvcurveto
            93 -37 57 -71 -52 -44 -34 -55 -58 44 -31 50 5 4 0 1 5 vhcurveto
            -1 -70 -42 -50 -85 -34 rrcurveto
            endchar
          </CharString>
          <CharString index="126">
            9 -78 rlineto
            94 hlineto
            return
          </CharString>
          <CharString index="127">
            -82 callsubr
            hstemhm
            -77 callgsubr
            hintmask 01100000
            168 callsubr
            hlineto
            hintmask 10100000
            592 300 216 return
          </CharString>
          <CharString index="128">
            -108 -592 -8 callsubr
          </CharString>
          <CharString index="129">
            0 callgsubr
            -35 -11 -50 -6 vhcurveto
            9 -50 rlineto
            86 6 76 29 63 vvcurveto
            47 -31 110 callsubr
          </CharString>
          <CharString index="130">
            33 6 15 16 18 hhcurveto
            return
          </CharString>
          <CharString index="131">
            -12 -12 callgsubr
            return
          </CharString>
          <CharString index="132">
            268 694 36 callgsubr
            return
          </CharString>
          <CharString index="133">
            rmoveto
            74 hlineto
            30 231 3 128 rlineto
            -140 hlineto
            3 -128 rlineto
            return
          </CharString>
          <CharString index="134">
            -50 34 -36 47 47 34 36 50 49 -34 37 -47 -47 -34 -37 -49 vhcurveto
            return
          </CharString>
          <CharString index="135">
            -87 callgsubr
            -73 callgsubr
            return
          </CharString>
          <CharString index="136">
            66 callgsubr
            endchar
          </CharString>
          <CharString index="137">
            54 49 47 46 50 vvcurveto
            66 -48 39 -75 167 callgsubr
            17 23 14 23 hhcurveto
            34 18 -19 -31 hvcurveto
            return
          </CharString>
          <CharString index="138">
            -46 callgsubr
            hstemhm
            53 119 return
          </CharString>
          <CharString index="139">
            -33 -6 -15 -15 -18 hhcurveto
            return
          </CharString>
          <CharString index="140">
            67 8 58 27 63 vvcurveto
            53 -48 30 -106 4 vhcurveto
            -12 -61 rlineto
            56 -3 25 33 callgsubr
            -29 -7 vhcurveto
            endchar
          </CharString>
          <CharString index="141">
            rmoveto
            266 76 -266 hlineto
            endchar
          </CharString>
          <CharString index="142">
            -200 1000 hstem
            return
          </CharString>
          <CharString index="143">
            rmoveto
            85 hlineto
            -89 158 rlineto
            -121 hlineto
            endchar
          </CharString>
          <CharString index="144">
            -26 54 rlineto
            -8 -13 -11 -5 -14 hhcurveto
            -23 -21 14 28 35 21 36 47 24 hvcurveto
            491 -328 -91 213 vlineto
            return
          </CharString>
          <CharString index="145">
            221 vlineto
            41 40 39 18 37 hhcurveto
            80 34 -58 -98 -111 return
          </CharString>
          <CharString index="146">
            64 85 53 66 64 hstem
            168 78 109 77 vstem
            309 return
          </CharString>
          <CharString index="147">
            vvcurveto
            -59 47 -32 59 30 40 14 18 22 vhcurveto
            return
          </CharString>
          <CharString index="148">
            300 94 callgsubr
            -538 -192 hlineto
            return
          </CharString>
          <CharString index="149">
            rmoveto
            61 hlineto
            38 8 12 16 22 hhcurveto
            return
          </CharString>
          <CharString index="150">
            43 119 276 119 return
          </CharString>
          <CharString index="151">
            246 -592 216 return
          </CharString>
          <CharString index="152">
            vvcurveto
            67 43 39 76 46 33 -18 -29 29 vhcurveto
            64 63 rlineto
            48 -43 -57 30 -81 hhcurveto
            -130 -90 -74 -120 return
          </CharString>
          <CharString index="153">
            rmoveto
            19 154 1 63 rlineto
            -77 hlineto
            5 -217 rlineto
            endchar
          </CharString>
          <CharString index="154">
            -46 35 -31 47 hvcurveto
            return
          </CharString>
          <CharString index="155">
            112 hstem
            245 110 vstem
            245 return
          </CharString>
          <CharString index="156">
            -77 callgsubr
            hstem
            -87 callgsubr
            vstem
            return
          </CharString>
          <CharString index="157">
            rmoveto
            -125 hlineto
            -85 -116 rlineto
            94 hlineto
            return
          </CharString>
          <CharString index="158">
            rmoveto
            -261 -76 261 hlineto
            endchar
          </CharString>
          <CharString index="159">
            22 37 vvcurveto
            53 -49 33 return
          </CharString>
          <CharString index="160">
            126 callgsubr
            -12 -20 return
          </CharString>
          <CharString index="161">
            -51 -27 -27 -37 -39 vvcurveto
            return
          </CharString>
          <CharString index="162">
            246 -646 216 return
          </CharString>
          <CharString index="163">
            82 40 50 63 7 hvcurveto
            return
          </CharString>
          <CharString index="164">
            -62 callsubr
            106 -21 return
          </CharString>
          <CharString index="165">
            hintmask 10100000
            103 callgsubr
            hlineto
            hintmask 01100000
            119 callsubr
            -246 return
          </CharString>
          <CharString index="166">
            rlineto
            94 vlineto
            -152 -7 7 167 rlineto
            -94 hlineto
            7 -167 -152 7 rlineto
            -94 vlineto
            152 return
          </CharString>
          <CharString index="167">
            105 callgsubr
            53 119 return
          </CharString>
          <CharString index="168">
            86 callgsubr
            230 116 return
          </CharString>
          <CharString index="169">
            46 -35 32 -47 -47 -35 -32 -46 return
          </CharString>
          <CharString index="170">
            -12 64 callgsubr
            return
          </CharString>
          <CharString index="171">
            9 -78 rlineto
            94 452 hlineto
            return
          </CharString>
          <CharString index="172">
            82 75 callsubr
            return
          </CharString>
          <CharString index="173">
            hlineto
            99 158 rlineto
            return
          </CharString>
          <CharString index="174">
            90 40 67 66 3 hvcurveto
            -55 hlineto
            -40 -6 -23 -34 -49 hhcurveto
            -48 -24 34 40 -6 hvcurveto
            -54 hlineto
            return
          </CharString>
          <CharString index="175">
            hstemhm
            71 111 return
          </CharString>
          <CharString index="176">
            30 callgsubr
            41 137 callsubr
            43 119 -20 61 194 61 -20 119 return
          </CharString>
          <CharString index="177">
            46 vmoveto
            -24 -20 21 30 31 20 21 24 25 20 -21 -31 -30 -20 -21 -25 hvcurveto
            endchar
          </CharString>
          <CharString index="178">
            106 callgsubr
            124 return
          </CharString>
          <CharString index="179">
            491 hstem
            290 85 vstem
            375 return
          </CharString>
          <CharString index="180">
            -62 callsubr
            73 79 callsubr
            return
          </CharString>
          <CharString index="181">
            rmoveto
            73 hlineto
            92 147 rlineto
            -95 hlineto
            return
          </CharString>
          <CharString index="182">
            116 218 116 return
          </CharString>
          <CharString index="183">
            -10 111 rlineto
            -95 hlineto
            return
          </CharString>
          <CharString index="184">
            21 139 callgsubr
            return
          </CharString>
          <CharString index="185">
            -30 -29 54 -49 hhcurveto
            return
          </CharString>
          <CharString index="186">
            101 476 101 return
          </CharString>
          <CharString index="187">
            89 callsubr
            -44 116 hstemhm
            20 560 hintmask 11101100
            return
          </CharString>
          <CharString index="188">
            21 159 callsubr
            50 116 hstem
            84 116 229 114 vstem
            return
          </CharString>
          <CharString index="189">
            159 69 53 21 34 54 vhcurveto
            -36 59 rlineto
            -26 -38 -39 -15 -59 hhcurveto
            -120 -102 return
          </CharString>
          <CharString index="190">
            491 rmoveto
            -66 -5 rlineto
            -86 66 -400 115 400 96 91 -96 53 vlineto
            57 return
          </CharString>
          <CharString index="191">
            -49 callgsubr
            endchar
          </CharString>
          <CharString index="192">
            300 108 return
          </CharString>
          <CharString index="193">
            -24 callgsubr
            73 74 -25 73 108 callgsubr
            209 61 -41 111 return
          </CharString>
          <CharString index="194">
            170 callgsubr
            43 -57 -57 -42 -43 -58 vhcurveto
            endchar
          </CharString>
          <CharString index="195">
            6 76 29 63 vvcurveto
            41 -26 20 -33 12 vhcurveto
            return
          </CharString>
          <CharString index="196">
            21 -69 callgsubr
            50 110 return
          </CharString>
          <CharString index="197">
            0 95 253 95 48 -20 return
          </CharString>
          <CharString index="198">
            77 callgsubr
            endchar
          </CharString>
          <CharString index="199">
            hstem
            20 560 vstem
            return
          </CharString>
          <CharString index="200">
            -646 108 return
          </CharString>
          <CharString index="201">
            72 250 rmoveto
            return
          </CharString>
          <CharString index="202">
            -254 1108 hstem
            -54 708 vstem
            54 854 rmoveto
            -108 -108 hlineto
            return
          </CharString>
          <CharString index="203">
            108 callsubr
            endchar
          </CharString>
          <CharString index="204">
            68 callsubr
            228 115 return
          </CharString>
          <CharString index="205">
            104 hstem
            306 59 vstem
            254 return
          </CharString>
          <CharString index="206">
            124 -54 116 hstemhm
            return
          </CharString>
          <CharString index="207">
            94 callgsubr
            -646 return
          </CharString>
          <CharString index="208">
            -108 hlineto
            endchar
          </CharString>
          <CharString index="209">
            93 callgsubr
            300 138 callgsubr
            return
          </CharString>
          <CharString index="210">
            153 328 rmoveto
            85 308 -67 hlineto
            return
          </CharString>
          <CharString index="211">
            rmoveto
            30 hlineto
            -330 550 rlineto
            -50 vlineto
            return
          </CharString>
          <CharString index="212">
            -60 callsubr
            45 callgsubr
            return
          </CharString>
          <CharString index="213">
            -8 -11 -13 -6 -14 hhcurveto
            -23 -22 13 29 return
          </CharString>
          <CharString index="214">
            -9 74 rlineto
            -95 hlineto
            return
          </CharString>
          <CharString index="215">
            -47 vlineto
            57 27 -14 -29 -26 -23 -12 -29 -32 -34 17 20 -20 hvcurveto
            return
          </CharString>
          <CharString index="216">
            152 callsubr
            endchar
          </CharString>
          <CharString index="217">
            24 -79 9 vhcurveto
            endchar
          </CharString>
          <CharString index="218">
            40 -43 -63 32 -84 hhcurveto
            -140 -131 -102 -247 -214 return
          </CharString>
          <CharString index="219">
            108 -246 646 125 callsubr
          </CharString>
          <CharString index="220">
            94 41 73 72 4 173 callgsubr
            return
          </CharString>
          <CharString index="221">
            94 533 91 hstemhm
            226 115 return
          </CharString>
          <CharString index="222">
            216 188 -216 hlineto
            return
          </CharString>
          <CharString index="223">
            53 -53 87 hstemhm
            153 85 return
          </CharString>
          <CharString index="224">
            53 callsubr
            hstemhm
            return
          </CharString>
          <CharString index="225">
            76 -66 77 86 77 -67 77 return
          </CharString>
          <CharString index="226">
            646 -77 callgsubr
            return
          </CharString>
          <CharString index="227">
            hlineto
            -5 -91 rlineto
            -39 vlineto
            return
          </CharString>
          <CharString index="228">
            -246 hlineto
            endchar
          </CharString>
          <CharString index="229">
            hstemhm
            198 176 13 116 -94 116 hintmask 11110100
            50 return
          </CharString>
          <CharString index="230">
            -750 rmoveto
            50 vlineto
            -420 700 rlineto
            -30 hlineto
            450 return
          </CharString>
          <CharString index="231">
            hintmask 01100000
            -646 -246 vlineto
            endchar
          </CharString>
          <CharString index="232">
            -216 -646 121 callsubr
          </CharString>
          <CharString index="233">
            -45 -33 -36 -66 return
          </CharString>
          <CharString index="234">
            -408 hlineto
            endchar
          </CharString>
          <CharString index="235">
            -62 callsubr
            73 -76 callgsubr
            return
          </CharString>
          <CharString index="236">
            119 hstemhm
            148 119 -25 116 -25 119 return
          </CharString>
          <CharString index="237">
            hstem
            300 300 vstem
            300 -200 rmoveto
            300 return
          </CharString>
          <CharString index="238">
            22 -34 -34 -24 -22 -32 -33 24 -21 34 hvcurveto
            endchar
          </CharString>
          <CharString index="239">
            45 33 36 66 7 hvcurveto
            -53 hlineto
            return
          </CharString>
          <CharString index="240">
            rmoveto
            113 216 -113 hlineto
            return
          </CharString>
          <CharString index="241">
            hstem
            201 198 vstem
            201 return
          </CharString>
          <CharString index="242">
            hstem
            165 callgsubr
            vstem
            300 return
          </CharString>
          <CharString index="243">
            704 116 hstem
            return
          </CharString>
          <CharString index="244">
            74 -25 73 hstemhm
            return
          </CharString>
          <CharString index="245">
            rlineto
            -120 hlineto
            return
          </CharString>
          <CharString index="246">
            -21 400 91 return
          </CharString>
          <CharString index="247">
            rmoveto
            -50 47 77 -40 109 hhcurveto
            130 112 return
          </CharString>
          <CharString index="248">
            19 60 vvcurveto
            47 -41 26 -94 3 vhcurveto
            -10 -51 rlineto
            return
          </CharString>
          <CharString index="249">
            731 -37 callgsubr
            return
          </CharString>
          <CharString index="250">
            vhcurveto
            22 86 rlineto
            9 -22 -32 8 -36 hhcurveto
            -116 return
          </CharString>
          <CharString index="251">
            11 24 hhcurveto
            49 21 -36 -62 -72 -33 -34 -43 -19 return
          </CharString>
          <CharString index="252">
            72 hstem
            40 82 95 87 159 85 vstem
            548 return
          </CharString>
          <CharString index="253">
            317 -164 108 164 90 vlineto
            endchar
          </CharString>
          <CharString index="254">
            42 -43 57 57 42 43 return
          </CharString>
          <CharString index="255">
            30 callgsubr
            38 return
          </CharString>
          <CharString index="256">
            -300 592 -108 return
          </CharString>
          <CharString index="257">
            -223 50 194 -21 return
          </CharString>
          <CharString index="258">
            hstem
            167 266 vstem
            return
          </CharString>
          <CharString index="259">
            126 callsubr
            -7 hvcurveto
            return
          </CharString>
          <CharString index="260">
            -47 51 70 -41 112 hhcurveto
            127 116 return
          </CharString>
          <CharString index="261">
            705 55 45 13 hstem
            171 258 vstem
            return
          </CharString>
          <CharString index="262">
            30 28 -42 47 hhcurveto
            45 34 38 66 7 hvcurveto
            return
          </CharString>
          <CharString index="263">
            138 callgsubr
            592 300 216 hlineto
            return
          </CharString>
          <CharString index="264">
            192 -538 108 646 -300 hlineto
            return
          </CharString>
          <CharString index="265">
            100 callsubr
            -8 callsubr
          </CharString>
          <CharString index="266">
            -21 256 92 213 93 return
          </CharString>
          <CharString index="267">
            108 36 62 -22 62 hstemhm
            return
          </CharString>
          <CharString index="268">
            216 222 -216 hlineto
            return
          </CharString>
          <CharString index="269">
            164 callgsubr
            hstemhm
            return
          </CharString>
          <CharString index="270">
            hlineto
            94 -116 rlineto
            return
          </CharString>
          <CharString index="271">
            98 458 98 return
          </CharString>
          <CharString index="272">
            186 hmoveto
            31 return
          </CharString>
          <CharString index="273">
            -137 hvcurveto
            hintmask 11110100
            -84 vlineto
            157 54 return
          </CharString>
          <CharString index="274">
            hstemhm
            92 115 19 164 28 115 return
          </CharString>
          <CharString index="275">
            -24 callsubr
            300 93 callsubr
            return
          </CharString>
          <CharString index="276">
            rmoveto
            -54 38 -36 49 49 38 36 54 vhcurveto
            return
          </CharString>
          <CharString index="277">
            rmoveto
            54 -38 36 -49 -49 -38 -36 -54 vhcurveto
            return
          </CharString>
          <CharString index="278">
            155 135 callsubr
            return
          </CharString>
          <CharString index="279">
            -23 23 -31 -31 return
          </CharString>
          <CharString index="280">
            51 64 7 hvcurveto
            return
          </CharString>
        <CharString name=".notdef">
          0 75 509 76 hstem
          48 82 339 83 vstem
          48 hmoveto
          504 660 -504 hlineto
          82 -527 rmoveto
          416 vlineto
          111 -209 rlineto
          118 hmoveto
          110 209 rlineto
          -416 vlineto
          -275 -58 rmoveto
          57 104 47 100 -9 callsubr
          46 -100 56 -104 rlineto
          -106 326 rmoveto
          -46 94 -49 89 rlineto
          193 hlineto
          -48 -89 -46 -94 rlineto
          endchar
        </CharString>
        <CharString name="A">
          21 -69 callgsubr
          92 callsubr
          215 268 -106 callgsubr
        </CharString>
        <CharString name="AE">
          0 98 72 91 31 98 166 98 hstem
          314 104 vstem
          207 261 rmoveto
          36 105 22 64 24 67 22 68 rlinecurve
          3 -304 hlineto
          104 -163 rmoveto
          194 132 98 -132 166 166 98 -352 vlineto
          -234 -654 rlineto
          120 hlineto
          58 170 rlineto
          138 -170 279 98 hlineto
          endchar
        </CharString>
        <CharString name="Aacute">
          21 -69 callgsubr
          50 116 92 callsubr
          447 820 -55 callsubr
          -115 -436 -106 callgsubr
        </CharString>
        <CharString name="Abreve">
          21 -69 callgsubr
          51 61 hstem
          20 560 25 callgsubr
          -215 -552 -106 callgsubr
        </CharString>
        <CharString name="Acircumflex">
          21 -69 callgsubr
          50 116 92 callsubr
          298 768 rmoveto
          4 hlineto
          60 -64 rlineto
          90 hlineto
          -96 -29 callgsubr
          -112 hlineto
          -96 -116 rlineto
          90 hlineto
          -23 -436 -106 callgsubr
        </CharString>
        <CharString name="Adieresis">
          21 -69 callgsubr
          54 90 callgsubr
          393 708 rmoveto
          35 24 25 34 35 -24 25 -35 -35 -25 -25 -35 -34 25 -25 35 hvcurveto
          -186 hmoveto
          35 25 25 34 35 -25 25 -35 -35 -24 -25 -35 -34 24 -25 35 hvcurveto
          8 -440 -106 callgsubr
        </CharString>
        <CharString name="Agrave">
          21 -69 callgsubr
          50 116 92 callsubr
          27 callgsubr
          -55 -436 -106 callgsubr
        </CharString>
        <CharString name="Amacron">
          21 -69 callgsubr
          70 76 151 callsubr
          433 800 rmoveto
          -266 -76 266 hlineto
          -218 -456 -106 callgsubr
        </CharString>
        <CharString name="Aogonek">
          -218 78 161 -69 callgsubr
          hstem
          408 87 vstem
          215 268 rmoveto
          23 80 20 69 20 74 18 73 rlinecurve
          4 hlineto
          19 -72 19 -75 20 -69 23 -80 rcurveline
          197 -394 rmoveto
          -9 -11 -14 -5 -16 hhcurveto
          -22 -20 14 28 40 34 46 51 12 hvcurveto
          -212 654 rlineto
          -136 hlineto
          -212 -654 rlineto
          118 hlineto
          51 177 rlineto
          218 hlineto
          50 -177 rlineto
          30 hlineto
          -34 -21 -45 -48 -58 40 callsubr
          endchar
        </CharString>
        <CharString name="Aring">
          21 -69 callgsubr
          44 46 94 46 hstem
          197 59 88 59 vstem
          300 838 rmoveto
          24 20 -18 -29 -30 -20 -17 -24 -25 -19 17 30 29 19 18 25 hvcurveto
          -140 vmoveto
          60 43 36 57 56 -43 37 -60 -61 -42 -37 -56 -57 42 -36 61 hvcurveto
          -85 -430 -106 callgsubr
        </CharString>
        <CharString name="Atilde">
          21 -69 callgsubr
          53 137 callsubr
          142 61 194 61 hintmask 11101010
          397 829 rmoveto
          hintmask 11110010
          32 callsubr
          hintmask 11101100
          79 callgsubr
          hintmask 11110100
          -25 callgsubr
          hintmask 11101100
          23 callsubr
          hintmask 11110010
          77 callgsubr
          hintmask 11101010
          24 callgsubr
          -243 -561 -106 callgsubr
        </CharString>
        <CharString name="B">
          0 90 210 83 181 90 hstemhm
          93 116 195 114 -80 113 hintmask 11110100
          93 hmoveto
          209 hlineto
          144 105 61 131 88 -52 51 -95 16 hvcurveto
          4 vlineto
          hintmask 11111000
          77 20 37 60 62 vvcurveto
          120 -98 41 -134 vhcurveto
          -193 hlineto
          116 -271 rmoveto
          181 69 vlineto
          84 42 -25 -60 -61 -38 -35 -91 hvcurveto
          -66 -293 rmoveto
          210 81 vlineto
          hintmask 11110100
          98 50 -32 -68 -74 -52 -36 -96 hvcurveto
          endchar
        </CharString>
        <CharString name="C">
          30 callgsubr
          hstem
          60 119 -94 callgsubr
          endchar
        </CharString>
        <CharString name="Cacute">
          -37 callsubr
          hstem
          60 119 -94 callgsubr
          437 495 50 callsubr
          endchar
        </CharString>
        <CharString name="Ccaron">
          -37 callsubr
          hstem
          60 119 -94 callgsubr
          352 495 -96 callgsubr
        </CharString>
        <CharString name="Ccedilla">
          -217 50 180 -21 573 101 hstem
          60 119 157 85 vstem
          497 154 rmoveto
          -41 -37 -41 -24 -53 hhcurveto
          -112 -75 90 149 147 75 90 109 51 38 -21 -32 32 hvcurveto
          65 72 rlineto
          43 -42 -64 39 -80 hhcurveto
          -173 -130 -127 -214 -195 107 -117 142 -21 hvcurveto
          -34 -67 rlineto
          43 -11 18 -14 -21 vvcurveto
          -27 -36 -13 -74 callsubr
          41 -26 20 -33 12 vhcurveto
          16 35 74 5 60 33 49 56 rlinecurve
          endchar
        </CharString>
        <CharString name="Ccircumflex">
          -37 callsubr
          hstem
          60 119 -94 callgsubr
          228 379 -96 callsubr
          endchar
        </CharString>
        <CharString name="Cdotaccent">
          30 callgsubr
          41 131 hstem
          60 119 100 143 -94 callgsubr
          290 382 rmoveto
          41 31 27 39 38 -31 27 -41 -40 -31 -27 -38 -39 31 -27 40 hvcurveto
          endchar
        </CharString>
        <CharString name="D">
          0 94 466 94 hstem
          75 116 242 119 vstem
          -78 callsubr
          endchar
        </CharString>
        <CharString name="Dcaron">
          0 94 466 94 50 116 hstem
          75 116 242 119 vstem
          -78 callsubr
          123 726 -96 callgsubr
        </CharString>
        <CharString name="Dcroat">
          -48 callsubr
        </CharString>
        <CharString name="E">
          -53 callsubr
          hstem
          104 116 vstem
          -98 callsubr
          endchar
        </CharString>
        <CharString name="Eacute">
          -53 callsubr
          50 116 hstem
          104 116 vstem
          -98 callsubr
          369 166 -55 callsubr
          endchar
        </CharString>
        <CharString name="Ebreve">
          -53 callsubr
          51 61 hstem
          104 116 vstem
          -98 callsubr
          222 51 rmoveto
          -69 callsubr
        </CharString>
        <CharString name="Ecaron">
          -53 callsubr
          50 116 hstem
          104 116 vstem
          -98 callsubr
          284 166 -96 callgsubr
        </CharString>
        <CharString name="Ecircumflex">
          -53 callsubr
          50 116 hstem
          104 116 vstem
          -98 callsubr
          160 50 -96 callsubr
          endchar
        </CharString>
        <CharString name="Edieresis">
          -53 callsubr
          54 119 hstemhm
          104 116 -46 119 66 119 hintmask 11101000
          -98 callsubr
          hintmask 11110110
          129 54 -92 callgsubr
        </CharString>
        <CharString name="Edotaccent">
          -53 callsubr
          53 131 hstem
          104 116 35 142 vstem
          -98 callsubr
          222 53 -71 callgsubr
        </CharString>
        <CharString name="Egrave">
          -53 callsubr
          50 116 hstem
          104 116 vstem
          -98 callsubr
          192 50 -18 callsubr
        </CharString>
        <CharString name="Emacron">
          -53 callsubr
          70 76 hstemhm
          104 116 -27 266 hintmask 11111000
          -98 callsubr
          hintmask 11110100
          89 70 34 callsubr
        </CharString>
        <CharString name="Eogonek">
          -218 78 140 -49 callsubr
          hstem
          104 116 132 87 vstem
          104 hmoveto
          325 hlineto
          -36 -22 -41 -47 -58 40 callsubr
          -28 60 rlineto
          106 callsubr
          48 43 46 46 4 hvcurveto
          4 98 -312 193 256 98 -256 167 302 98 -418 hlineto
          endchar
        </CharString>
        <CharString name="Eth">
          -48 callsubr
        </CharString>
        <CharString name="Euro">
          -12 90 147 61 59 61 152 90 hstem
          107 117 vstem
          510 141 rmoveto
          -41 -36 -38 -22 -52 hhcurveto
          -78 -52 54 93 -21 hvcurveto
          232 61 -240 hlineto
          -1 11 0 11 12 vvcurveto
          9 0 8 1 8 vhcurveto
          280 61 -273 hlineto
          96 18 53 56 83 hhcurveto
          47 35 -21 -30 33 hvcurveto
          65 63 rlineto
          48 -44 -64 30 -68 hhcurveto
          -142 -105 -89 -154 -28 hvcurveto
          -64 -4 rlineto
          -56 57 vlineto
          -1 -9 0 -10 -10 vvcurveto
          -11 0 -10 1 -10 vhcurveto
          -57 -4 rlineto
          -56 64 vlineto
          -153 28 102 -84 133 hhcurveto
          81 63 34 59 53 hvcurveto
          endchar
        </CharString>
        <CharString name="F">
          21 -21 273 98 185 98 hstem
          121 116 vstem
          121 hmoveto
          116 273 255 98 -255 185 300 98 -416 hlineto
          endchar
        </CharString>
        <CharString name="G">
          63 callsubr
          hstem
          48 120 267 105 vstem
          -102 callsubr
          endchar
        </CharString>
        <CharString name="Gbreve">
          63 callsubr
          39 61 hstem
          48 120 267 105 vstem
          -102 callsubr
          283 380 rmoveto
          83 40 173 callsubr
          -66 hlineto
          -29 -6 -19 -25 -39 hhcurveto
          -40 -19 25 29 -6 hvcurveto
          -65 hlineto
          -64 7 39 -51 84 hhcurveto
          endchar
        </CharString>
        <CharString name="Gcaron">
          63 callsubr
          38 116 hstem
          48 120 267 105 vstem
          -102 callsubr
          345 495 -96 callgsubr
        </CharString>
        <CharString name="Gcircumflex">
          63 callsubr
          38 116 hstem
          48 120 267 105 vstem
          -102 callsubr
          221 379 -96 callsubr
          endchar
        </CharString>
        <CharString name="Gdotaccent">
          63 callsubr
          41 131 hstem
          48 120 92 142 33 105 vstem
          -102 callsubr
          283 382 -71 callgsubr
        </CharString>
        <CharString name="H">
          21 159 callgsubr
          hstem
          72 116 224 116 vstem
          -35 callgsubr
          endchar
        </CharString>
        <CharString name="Hbar">
          21 -21 290 101 98 59 -59 165 108 callgsubr
          224 116 hintmask 11011100
          412 391 rmoveto
          -224 98 224 hlineto
          hintmask 11101100
          182 59 rmoveto
          -66 hlineto
          hintmask 11011100
          106 -116 vlineto
          hintmask 11101100
          -106 -224 vlineto
          hintmask 11011100
          106 -116 vlineto
          hintmask 11101100
          -106 vlineto
          -66 -5 rlineto
          hintmask 11011100
          -54 66 -489 116 290 224 -290 116 489 66 vlineto
          endchar
        </CharString>
        <CharString name="Hcircumflex">
          21 159 callgsubr
          70 116 hstem
          72 116 224 116 vstem
          -35 callgsubr
          165 50 -96 callsubr
          endchar
        </CharString>
        <CharString name="I">
          121 callgsubr
          16 callsubr
          -91 callgsubr
          endchar
        </CharString>
        <CharString name="Iacute">
          121 callgsubr
          50 116 16 callsubr
          -91 callgsubr
          363 722 -55 callsubr
          endchar
        </CharString>
        <CharString name="Icircumflex">
          121 callgsubr
          50 116 16 callsubr
          -91 callgsubr
          154 606 -96 callsubr
          endchar
        </CharString>
        <CharString name="Idieresis">
          121 callgsubr
          54 129 callsubr
          hintmask 11001000
          -91 callgsubr
          hintmask 11110100
          123 610 -92 callgsubr
        </CharString>
        <CharString name="Idotaccent">
          121 callgsubr
          53 131 hstemhm
          229 142 -129 116 hintmask 11001000
          -91 callgsubr
          hintmask 11110000
          216 609 -71 callgsubr
        </CharString>
        <CharString name="Igrave">
          121 callgsubr
          50 116 16 callsubr
          -91 callgsubr
          186 606 -18 callsubr
        </CharString>
        <CharString name="Imacron">
          121 callgsubr
          70 76 hstemhm
          167 266 -191 116 hintmask 11101000
          -91 callgsubr
          hintmask 11110000
          83 626 34 callsubr
        </CharString>
        <CharString name="Iogonek">
          -218 78 140 164 callsubr
          hstemhm
          202 86 -46 116 hintmask 01101000
          84 hmoveto
          hintmask 11110000
          188 hlineto
          -31 -25 -39 -41 -61 vvcurveto
          -59 46 -32 59 31 39 14 18 22 vhcurveto
          -28 60 rlineto
          -8 -11 -13 -6 -15 hhcurveto
          -22 -22 13 29 37 22 34 48 27 hvcurveto
          158 98 hlineto
          hintmask 01101000
          -158 458 158 98 -432 -98 158 -458 -158 hlineto
          endchar
        </CharString>
        <CharString name="Itilde">
          121 callgsubr
          53 137 callsubr
          142 61 39 116 39 61 hintmask 11100110
          -91 callgsubr
          278 609 rmoveto
          hintmask 11010110
          24 callgsubr
          -61 hlineto
          hintmask 11100110
          32 callsubr
          hintmask 11011110
          79 callgsubr
          hintmask 11101110
          -25 callgsubr
          hintmask 11011110
          23 callsubr
          hintmask 11100110
          91 callsubr
        </CharString>
        <CharString name="J">
          -12 100 469 97 2 callsubr
          endchar
        </CharString>
        <CharString name="Jcircumflex">
          -12 100 469 97 50 116 2 callsubr
          119 537 -96 callsubr
          endchar
        </CharString>
        <CharString name="K">
          77 callsubr
          hstem
          83 117 2 callgsubr
          endchar
        </CharString>
        <CharString name="L">
          0 98 556 -20 hstem
          120 115 vstem
          -45 callgsubr
          endchar
        </CharString>
        <CharString name="Lacute">
          0 98 556 -20 70 116 hstem
          120 115 vstem
          -45 callgsubr
          219 166 50 callsubr
          endchar
        </CharString>
        <CharString name="Lcaron">
          0 98 414 217 -75 -20 hstemhm
          120 115 150.5 74 hintmask 10111000
          -45 callgsubr
          hintmask 11011000
          320 -142 46 callsubr
        </CharString>
        <CharString name="Ldot">
          0 98 176 154 226 -20 hstem
          120 115 125 164 vstem
          -45 callgsubr
          322 -380 rmoveto
          47 35 30 46 47 -35 31 -47 -47 -35 -31 -47 -46 35 -30 47 hvcurveto
          endchar
        </CharString>
        <CharString name="Lslash">
          0 98 556 -20 hstem
          120 115 vstem
          235 98 rmoveto
          171 vlineto
          216 -29 callgsubr
          91 vlineto
          -216 -116 rlineto
          294 -115 -350 vlineto
          -77 -43 rlineto
          -91 vlineto
          77 43 rlineto
          -213 422 98 vlineto
          endchar
        </CharString>
        <CharString name="M">
          21 -21 176 125 238 115 hstem
          73 94 265 -32 callsubr
          endchar
        </CharString>
        <CharString name="N">
          0 39 callgsubr
          230 111 hintmask 01011100
          29 callgsubr
          hintmask 01101100
          -81 callgsubr
          hintmask 10011100
          -71 callsubr
          endchar
        </CharString>
        <CharString name="Nacute">
          0 -28 callgsubr
          70 116 hstemhm
          74 111 230 111 hintmask 01011110
          29 callgsubr
          hintmask 01101110
          -81 callgsubr
          hintmask 10011110
          -71 callsubr
          379 166 -55 callsubr
          endchar
        </CharString>
        <CharString name="Ncaron">
          0 -28 callgsubr
          70 116 hstemhm
          74 111 230 111 hintmask 01011110
          29 callgsubr
          hintmask 01101110
          -81 callgsubr
          hintmask 10011110
          -71 callsubr
          294 166 -96 callgsubr
        </CharString>
        <CharString name="Ntilde">
          0 -28 callgsubr
          73 137 callsubr
          74 111 -37 61 194 61 -49 111 hintmask 0101011001000000
          29 callgsubr
          hintmask 0110011001000000
          -81 callgsubr
          hintmask 1001011001000000
          -71 callsubr
          hintmask 0101101010000000
          294 53 rmoveto
          hintmask 0101011010000000
          24 callgsubr
          -61 hlineto
          hintmask 0101101010000000
          32 callsubr
          hintmask 0101010101000000
          79 callgsubr
          hintmask 0101100101000000
          -25 callgsubr
          hintmask 0101010101000000
          23 callsubr
          hintmask 0101101010000000
          91 callsubr
        </CharString>
        <CharString name="O">
          30 callgsubr
          hstem
          43 callsubr
          vstem
          -106 callsubr
          endchar
        </CharString>
        <CharString name="OE">
          0 94 -94 98 193 98 168 97 -94 94 hstemhm
          26 119 157 104 hintmask 01110110
          26 330 rmoveto
          -217 106 -113 160 vhcurveto
          301 98 -187 193 134 98 -134 168 177 97 -286 hlineto
          -162 -109 -108 -216 hvcurveto
          hintmask 10101110
          119 hmoveto
          162 49 68 90 vhcurveto
          18 -466 -18 hlineto
          -90 -49 74 162 hvcurveto
          endchar
        </CharString>
        <CharString name="Oacute">
          -37 callsubr
          hstem
          43 callsubr
          vstem
          -106 callsubr
          147 731 -55 callsubr
          endchar
        </CharString>
        <CharString name="Ocircumflex">
          -37 callsubr
          hstem
          43 callsubr
          vstem
          -106 callsubr
          -62 615 -96 callsubr
          endchar
        </CharString>
        <CharString name="Odieresis">
          30 callgsubr
          42 119 hstemhm
          43 119 -14 119 66 119 -14 119 hintmask 11110010
          -106 callsubr
          hintmask 11101100
          -93 619 -92 callgsubr
        </CharString>
        <CharString name="Ograve">
          -37 callsubr
          hstem
          43 callsubr
          vstem
          -106 callsubr
          -30 615 -18 callsubr
        </CharString>
        <CharString name="Ohorn">
          30 callgsubr
          62 callgsubr
          -69 91 hintmask 11110000
          300 89 rmoveto
          -84 -54 94 147 146 54 89 84 84 54 -89 -146 -147 -54 -94 -84 hvcurveto
          hintmask 11101000
          -85 callgsubr
          hintmask 11110000
          -26 callgsubr
          hintmask 11101000
          -21 callsubr
        </CharString>
        <CharString name="Ohungarumlaut">
          -37 callsubr
          hstem
          43 callsubr
          vstem
          -106 callsubr
          -44 615 -3 callgsubr
        </CharString>
        <CharString name="Omacron">
          30 callgsubr
          58 76 hstemhm
          43 119 5 266 5 119 hintmask 11110100
          -106 callsubr
          hintmask 11101000
          -133 635 34 callsubr
        </CharString>
        <CharString name="Oslash">
          -12 101 -80 -21 577 101 0 -20 62 callgsubr
          hintmask 10101100
          426 440 rmoveto
          8 -32 4 -37 -41 vvcurveto
          -147 -54 -94 -84 -34 -29 15 28 -22 vhcurveto
          -38 77 rmoveto
          -10 35 -5 40 46 vvcurveto
          146 54 89 84 36 30 -16 -29 23 vhcurveto
          hintmask 10011100
          179 128 rmoveto
          hintmask 01101100
          -63 42 -53 -78 rlineto
          35 -41 -52 19 -59 hhcurveto
          -152 -105 -125 -211 -95 21 -79 37 -57 hvcurveto
          -63 -93 rlineto
          hintmask 10011100
          62 -42 52 76 rlineto
          -34 41 50 -18 57 hhcurveto
          152 105 130 212 91 -20 76 -34 56 hvcurveto
          endchar
        </CharString>
        <CharString name="Otilde">
          69 callsubr
          hintmask 11011001
          -106 callsubr
          hintmask 11101010
          62 618 rmoveto
          hintmask 11011010
          24 callgsubr
          -61 hlineto
          hintmask 11101010
          32 callsubr
          hintmask 11010101
          79 callgsubr
          hintmask 11100101
          -25 callgsubr
          hintmask 11010101
          23 callsubr
          hintmask 11101010
          91 callsubr
        </CharString>
        <CharString name="P">
          21 -21 240 93 228 93 hstem
          87 116 239 114 vstem
          87 hmoveto
          116 240 104 hlineto
          141 108 67 145 152 -105 50 -144 hvcurveto
          -220 hlineto
          116 -321 rmoveto
          228 95 vlineto
          95 49 -27 -82 -80 -47 -39 -97 hvcurveto
          endchar
        </CharString>
        <CharString name="Q">
          -170 94 94 -21 569 100 hstem
          43 118 273 119 vstem
          161 330 rmoveto
          146 52 90 85 84 52 -90 -146 -147 -52 -95 -84 -85 -52 95 147 vhcurveto
          385 -394 rmoveto
          -6 -13 -18 -6 -20 hhcurveto
          -57 -50 22 51 -23 hvcurveto
          114 33 74 121 179 vvcurveto
          211 -103 125 -152 -152 -103 -125 -211 -185 79 -123 121 -28 vhcurveto
          -96 37 80 -68 122 hhcurveto
          35 28 7 10 22 hvcurveto
          endchar
        </CharString>
        <CharString name="R">
          21 159 callsubr
          hstem
          84 116 229 114 vstem
          200 561 14 callsubr
          369 -348 rmoveto
          -156 273 rlineto
          -75 callsubr
          endchar
        </CharString>
        <CharString name="Racute">
          81 callsubr
          450 820 50 callsubr
          -134 -143 14 callsubr
          369 -348 rmoveto
          -156 273 rlineto
          -75 callsubr
          endchar
        </CharString>
        <CharString name="Rcaron">
          81 callsubr
          360 59 callgsubr
          -48 -143 14 callsubr
          369 -348 rmoveto
          -156 273 rlineto
          -75 callsubr
          endchar
        </CharString>
        <CharString name="S">
          30 callgsubr
          hstem
          87 117 222 118 vstem
          -101 callgsubr
          endchar
        </CharString>
        <CharString name="Sacute">
          -37 callsubr
          hstem
          87 117 222 118 vstem
          -101 callgsubr
          330 657 rmoveto
          -126 hlineto
          -84 -116 rlineto
          94 hlineto
          endchar
        </CharString>
        <CharString name="Scaron">
          -37 callsubr
          hstem
          87 117 222 118 vstem
          -101 callgsubr
          245 657 -96 callgsubr
        </CharString>
        <CharString name="Scircumflex">
          -37 callsubr
          hstem
          87 117 222 118 vstem
          -101 callgsubr
          121 541 -96 callsubr
          endchar
        </CharString>
        <CharString name="T">
          21 -21 556 98 16 callsubr
          -22 callsubr
          endchar
        </CharString>
        <CharString name="Tcaron">
          21 -21 556 98 50 116 16 callsubr
          -22 callsubr
          120 264 -96 callgsubr
        </CharString>
        <CharString name="Thorn">
          21 -21 136 93 228 93 104 -20 hstem
          87 116 238 115 vstem
          87 hmoveto
          116 136 104 hlineto
          141 108 66 146 151 -106 51 -143 hvcurveto
          -104 104 -116 hlineto
          116 -425 rmoveto
          228 94 vlineto
          95 49 -28 -81 -80 -46 -39 -98 hvcurveto
          endchar
        </CharString>
        <CharString name="U">
          -24 callgsubr
          hstem
          -9 callgsubr
          vstem
          -103 callgsubr
          endchar
        </CharString>
        <CharString name="Uacute">
          -24 callgsubr
          70 116 hstem
          -9 callgsubr
          vstem
          -103 callgsubr
          375 166 -55 callsubr
          endchar
        </CharString>
        <CharString name="Ubreve">
          -24 callgsubr
          71 61 hstem
          -9 callgsubr
          vstem
          -103 callgsubr
          228 51 rmoveto
          -69 callsubr
        </CharString>
        <CharString name="Ucircumflex">
          -24 callgsubr
          70 116 hstem
          -9 callgsubr
          vstem
          -103 callgsubr
          166 50 -96 callsubr
          endchar
        </CharString>
        <CharString name="Udieresis">
          -24 callgsubr
          74 119 108 callgsubr
          -40 119 66 119 -35 111 hintmask 11110010
          -103 callgsubr
          hintmask 11101100
          135 54 -92 callgsubr
        </CharString>
        <CharString name="Ugrave">
          -24 callgsubr
          70 116 hstem
          -9 callgsubr
          vstem
          -103 callgsubr
          198 50 -18 callsubr
        </CharString>
        <CharString name="Uhorn">
          -24 callgsubr
          hstemhm
          -9 callgsubr
          26 92 vstemhm
          539 762 -70 callgsubr
          -48 -38 -12 -46 -4 vhcurveto
          hintmask 11110000
          -83 callgsubr
          hintmask 11111000
          -21 callgsubr
        </CharString>
        <CharString name="Uhungarumlaut">
          -24 callgsubr
          70 116 hstem
          -9 callgsubr
          vstem
          -103 callgsubr
          184 50 -3 callgsubr
        </CharString>
        <CharString name="Umacron">
          -24 callgsubr
          90 76 hstem
          -9 callgsubr
          vstem
          -103 callgsubr
          95 70 34 callsubr
        </CharString>
        <CharString name="Uogonek">
          -218 78 130 99 565 -20 hstem
          72 116 32 87 110 111 vstem
          94 callsubr
          -162 69 -93 144 -5 vhcurveto
          -21 -21 -44 -37 -59 40 callsubr
          -28 60 rlineto
          106 callsubr
          32 24 38 73 35 hvcurveto
          79 36 45 76 131 vvcurveto
          404 -111 -413 vlineto
          -107 -46 -45 -70 -70 -43 45 107 vhcurveto
          413 -116 vlineto
          endchar
        </CharString>
        <CharString name="Uring">
          -24 callgsubr
          64 46 94 46 108 callgsubr
          9 59 88 59 14 111 hintmask 11111001
          -103 callgsubr
          hintmask 11111111
          228 44 6 callsubr
        </CharString>
        <CharString name="Utilde">
          86 callsubr
          hintmask 11011010
          -103 callgsubr
          hintmask 11101100
          290 53 rmoveto
          hintmask 11011100
          24 callgsubr
          -61 hlineto
          5 callgsubr
          endchar
        </CharString>
        <CharString name="V">
          0 112 -91 139 callgsubr
          hstemhm
          28 544 hintmask 01110000
          232 hmoveto
          137 hlineto
          203 654 rlineto
          -119 hlineto
          -91 -329 rlineto
          hintmask 10110000
          -20 -74 -15 -64 -22 -75 rrcurveto
          -4 hlineto
          -22 75 -15 64 -21 74 -92 329 rcurveline
          -123 hlineto
          endchar
        </CharString>
        <CharString name="W">
          28 callgsubr
          hstem
          7 586 -99 callsubr
          endchar
        </CharString>
        <CharString name="Wacute">
          28 callgsubr
          70 116 hstem
          7 586 -99 callsubr
          440 166 -55 callsubr
          endchar
        </CharString>
        <CharString name="Wcircumflex">
          28 callgsubr
          70 116 hstem
          7 586 -99 callsubr
          231 50 -96 callsubr
          endchar
        </CharString>
        <CharString name="Wdieresis">
          28 callgsubr
          74 119 hstem
          148 119 66 119 -99 callsubr
          200 54 -92 callgsubr
        </CharString>
        <CharString name="Wgrave">
          28 callgsubr
          70 116 hstem
          7 586 -99 callsubr
          263 50 -18 callsubr
        </CharString>
        <CharString name="X">
          77 callsubr
          hstem
          36 528 vstem
          36 hmoveto
          123 hlineto
          82 154 17 34 16 33 18 40 rlinecurve
          4 hlineto
          20 -40 17 -33 18 -34 85 -154 rcurveline
          128 hlineto
          -192 332 180 322 rlineto
          -123 hlineto
          -74 -145 -15 -30 -14 -31 -17 -39 rlinecurve
          -4 hlineto
          -20 39 -15 31 -16 30 -77 145 rcurveline
          -129 hlineto
          180 -317 rlineto
          endchar
        </CharString>
        <CharString name="Y">
          77 callsubr
          16 callsubr
          -100 callsubr
          endchar
        </CharString>
        <CharString name="Yacute">
          77 callsubr
          70 116 16 callsubr
          -100 callsubr
          205 593 -55 callsubr
          endchar
        </CharString>
        <CharString name="Ycircumflex">
          77 callsubr
          70 116 16 callsubr
          -100 callsubr
          -4 477 -96 callsubr
          endchar
        </CharString>
        <CharString name="Ydieresis">
          77 callsubr
          74 129 callsubr
          hintmask 11101000
          -100 callsubr
          hintmask 11110100
          -35 481 -92 callgsubr
        </CharString>
        <CharString name="Ygrave">
          77 callsubr
          70 116 16 callsubr
          -100 callsubr
          28 477 -18 callsubr
        </CharString>
        <CharString name="Z">
          0 98 459 97 hstem
          61 482 -63 callgsubr
          endchar
        </CharString>
        <CharString name="Zacute">
          0 98 459 97 50 116 hstem
          61 482 -63 callgsubr
          401 750 -55 callsubr
          endchar
        </CharString>
        <CharString name="Zcaron">
          0 98 459 97 50 116 hstem
          61 482 -63 callgsubr
          316 750 -96 callgsubr
        </CharString>
        <CharString name="Zdotaccent">
          0 98 459 97 53 131 hstem
          244 142 -63 callgsubr
          254 637 -71 callgsubr
        </CharString>
        <CharString name="a">
          -66 callsubr
          97 callsubr
          hintmask 10111100
          -97 callsubr
          hintmask 01111100
          -104 callgsubr
          hintmask 10111100
          -104 callsubr
          endchar
        </CharString>
        <CharString name="a.a">
          -12 31 callsubr
          230 116 hintmask 10101100
          -107 callsubr
          hintmask 01011100
          -76 callsubr
          hintmask 10101100
          -100 callgsubr
          endchar
        </CharString>
        <CharString name="a.supa">
          -52 callgsubr
        </CharString>
        <CharString name="a.sups">
          -60 callgsubr
        </CharString>
        <CharString name="aacute">
          -12 -13 callgsubr
          228 115 hintmask 10111110
          -97 callsubr
          hintmask 01111110
          -104 callgsubr
          hintmask 10111110
          -104 callsubr
          265 590 -51 callgsubr
        </CharString>
        <CharString name="aacute.a">
          -12 -14 callsubr
          230 116 hintmask 10101110
          -107 callsubr
          hintmask 01011110
          -76 callsubr
          hintmask 10101110
          -100 callgsubr
          394 486 -3 callsubr
        </CharString>
        <CharString name="abreve">
          -66 callsubr
          72 65 68 callsubr
          -10 67 144 67 -40 115 hintmask 1011110010000000
          -97 callsubr
          hintmask 0111110010000000
          -104 callgsubr
          hintmask 1011110010000000
          -104 callsubr
          hintmask 1011101100000000
          22 callgsubr
          endchar
        </CharString>
        <CharString name="abreve.a">
          -65 callgsubr
          104 65 86 callgsubr
          0 66 144 67 -47 116 hintmask 1010110010000000
          -107 callsubr
          hintmask 0101110010000000
          -76 callsubr
          hintmask 1010110010000000
          -100 callgsubr
          hintmask 1010101100000000
          257 330 -51 callsubr
          endchar
        </CharString>
        <CharString name="acircumflex">
          -12 -13 callgsubr
          228 115 hintmask 10111110
          -97 callsubr
          hintmask 01111110
          -104 callgsubr
          hintmask 10111110
          -104 callsubr
          -19 432 rmoveto
          86 -72 callgsubr
          85 hlineto
          -98 158 rlineto
          -98 hlineto
          endchar
        </CharString>
        <CharString name="acircumflex.a">
          -12 -14 callsubr
          230 116 hintmask 10101110
          -107 callsubr
          hintmask 01011110
          -76 callsubr
          hintmask 10101110
          -100 callgsubr
          110 328 -42 callsubr
          -97 hlineto
          endchar
        </CharString>
        <CharString name="acute">
          78 callgsubr
          226 210 vstem
          436 142 callsubr
          endchar
        </CharString>
        <CharString name="adieresis">
          -66 callsubr
          76 135 68 callsubr
          -40 132 73 133 -70 115 hintmask 1011110010000000
          -97 callsubr
          hintmask 0111110010000000
          -104 callgsubr
          hintmask 1011110010000000
          -104 callsubr
          hintmask 1011101100000000
          26 438 rmoveto
          43 callgsubr
          -27 -30 -38 -38 27 -29 39 hvcurveto
          206 hmoveto
          -6 callgsubr
          -40 -27 -30 -38 -38 27 -29 40 hvcurveto
          endchar
        </CharString>
        <CharString name="adieresis.a">
          -65 callgsubr
          108 135 86 callgsubr
          -31 133 73 133 -78 116 hintmask 1010110010000000
          -107 callsubr
          hintmask 0101110010000000
          -76 callsubr
          hintmask 1010110010000000
          -100 callgsubr
          hintmask 1010101100000000
          155 334 -43 callsubr
        </CharString>
        <CharString name="ae">
          -12 91 135 73 124 92 -89 89 hstemhm
          16 105 132 93 156 93 hintmask 11011110
          16 134 rmoveto
          -86 50 -60 84 49 47 28 56 54 vhcurveto
          -52 32 47 -32 71 hhcurveto
          45 49 18 27 36 hvcurveto
          -40 75 rlineto
          -18 -27 -27 -11 -32 hhcurveto
          -63 -36 51 84 -8 hvcurveto
          243 hlineto
          2 15 3 21 22 vvcurveto
          125 -51 106 -100 -61 -41 -30 -55 -33 vhcurveto
          50 -20 -37 35 -61 hhcurveto
          -58 -54 -24 -29 -48 hvcurveto
          hintmask 11101110
          42 -77 rlineto
          21 33 44 17 31 hhcurveto
          50 19 -38 -59 3 hvcurveto
          hintmask 11011110
          -158 -27 -79 -54 -99 vvcurveto
          330 153 rmoveto
          83 6 34 44 47 hhcurveto
          53 16 -58 -69 hvcurveto
          -381 -145 rmoveto
          49 38 34 93 17 vhcurveto
          1 -23 1 -31 5 -32 9 -26 rlinecurve
          -33 -27 -34 -19 -27 hhcurveto
          -36 -23 22 42 hvcurveto
          endchar
        </CharString>
        <CharString name="agrave">
          -12 -13 callgsubr
          228 115 hintmask 10111110
          -97 callsubr
          hintmask 01111110
          -104 callgsubr
          hintmask 10111110
          -104 callsubr
          117 432 36 callsubr
        </CharString>
        <CharString name="agrave.a">
          -12 -14 callsubr
          230 116 hintmask 10101110
          -107 callsubr
          hintmask 01011110
          -76 callsubr
          hintmask 10101110
          -100 callgsubr
          245 328 -17 callgsubr
        </CharString>
        <CharString name="amacron">
          -66 callsubr
          93 76 68 callsubr
          -2 261 -31 115 hintmask 10111101
          -97 callsubr
          hintmask 01111101
          -104 callgsubr
          hintmask 10111101
          -104 callsubr
          hintmask 10111010
          -2 455 9 callgsubr
          endchar
        </CharString>
        <CharString name="amacron.a">
          -65 callgsubr
          125 76 86 callgsubr
          8 261 -39 116 hintmask 10101101
          -107 callsubr
          hintmask 01011101
          -76 callsubr
          hintmask 10101101
          -100 callgsubr
          hintmask 10101110
          127 351 9 callgsubr
          endchar
        </CharString>
        <CharString name="ampersand">
          -12 89 511 78 hstemhm
          32 110 -39 96 109 90 hintmask 11101000
          142 179 rmoveto
          39 21 32 29 29 vhcurveto
          41 -59 52 -57 55 -48 rrcurveto
          -24 -28 -31 -14 -32 hhcurveto
          -61 -46 41 61 hvcurveto
          hintmask 11011000
          57 325 rmoveto
          50 23 34 35 38 13 -27 -35 -49 -37 -35 -47 -33 vhcurveto
          -16 33 -9 32 30 vvcurveto
          383 -422 rmoveto
          -31 9 -34 18 -37 25 44 68 32 77 22 82 rrcurveto
          -106 hlineto
          -15 -66 -23 -57 -30 -47 -52 43 -49 52 -38 53 rrcurveto
          66 51 67 53 84 vvcurveto
          83 -53 56 -89 -93 -60 -73 -90 -44 16 -51 27 -53 vhcurveto
          hintmask 11101000
          -60 -43 -54 -53 -87 vvcurveto
          -103 77 -81 126 73 59 27 41 48 vhcurveto
          47 -33 46 -23 45 -12 rrcurveto
          endchar
        </CharString>
        <CharString name="aogonek">
          -208 71 125 -76 callgsubr
          68 callsubr
          176 80 -28 115 hintmask 11011101
          71 132 rmoveto
          -86 68 -58 96 vhcurveto
          hintmask 11011110
          66 66 33 40 52 hvcurveto
          3 hlineto
          10 -60 rlineto
          -32 -21 -42 -44 -56 vvcurveto
          7 callsubr
          13 29 hvcurveto
          hintmask 10111101
          35 27 40 60 20 vhcurveto
          291 vlineto
          137 -75 75 -136 -84 -81 -33 -35 -59 vhcurveto
          42 -77 rlineto
          28 51 55 24 55 hhcurveto
          80 33 -41 -55 4 hvcurveto
          hintmask 11011101
          -104 callsubr
          endchar
        </CharString>
        <CharString name="aogonek.a">
          -208 71 125 31 callsubr
          178 80 -28 116 hintmask 11010101
          172 246 rmoveto
          103 57 59 68 36 34 -12 -33 35 vhcurveto
          -221 vlineto
          -40 -34 -36 -19 -41 hhcurveto
          -75 -44 57 106 hvcurveto
          -119 -1 rmoveto
          -162 85 -95 125 vhcurveto
          hintmask 11010110
          54 57 31 38 37 hvcurveto
          3 hlineto
          10 -56 rlineto
          -34 -25 -40 -40 -56 vvcurveto
          -58 44 -30 54 29 39 12 18 22 vhcurveto
          -26 54 rlineto
          -8 -10 -13 -5 -15 hhcurveto
          -23 -21 14 28 hvcurveto
          hintmask 10101101
          35 25 36 63 24 vhcurveto
          491 -91 vlineto
          hintmask 11010101
          -100 callgsubr
          endchar
        </CharString>
        <CharString name="approxequal">
          136 84 -4 84 60 84 -4 84 hstemhm
          64 472 hintmask 01011000
          134 356 89 callgsubr
          hintmask 01101000
          19 callgsubr
          hintmask 01011000
          -57 -55 -36 -100 -38 hvcurveto
          70 -256 89 callgsubr
          hintmask 10011000
          19 callgsubr
          hintmask 01011000
          -57 -55 -36 -100 -38 hvcurveto
          endchar
        </CharString>
        <CharString name="aring">
          -66 callsubr
          42 46 103 46 68 callsubr
          26 58 89 59 -4 115 hintmask 1011111101000000
          -97 callsubr
          hintmask 0111110101000000
          -104 callgsubr
          hintmask 1011111101000000
          -104 callsubr
          hintmask 1001110110000000
          129 404 rmoveto
          61 42 39 58 59 -42 39 -61 -61 -42 -39 -59 -58 42 -39 61 hvcurveto
          46 vmoveto
          -25 -20 21 30 31 20 21 25 24 20 -21 -31 -30 -20 -21 -24 hvcurveto
          endchar
        </CharString>
        <CharString name="aring.a">
          -65 callgsubr
          74 46 103 46 86 callgsubr
          35 59 89 59 -12 116 hintmask 1010111101000000
          -107 callsubr
          hintmask 0101111101000000
          -76 callsubr
          hintmask 1010111101000000
          -100 callgsubr
          257 300 rmoveto
          hintmask 1010111110000000
          61 43 39 58 59 -43 39 -61 -60 -43 -39 -59 hvcurveto
          hintmask 1010111101000000
          -58 43 -39 60 vhcurveto
          hintmask 1010111110000000
          70 callsubr
        </CharString>
        <CharString name="arrowdown">
          -25 553 hstem
          254 92 vstem
          302 -25 rmoveto
          266 275 -63 56 -159 -175 rlineto
          397 -92 -397 vlineto
          -159 175 -63 -56 266 -275 rlineto
          endchar
        </CharString>
        <CharString name="arrowup">
          -25 553 hstem
          254 92 vstem
          298 528 rmoveto
          -266 -275 63 -56 159 175 rlineto
          -397 92 397 vlineto
          159 -175 63 56 -266 275 rlineto
          endchar
        </CharString>
        <CharString name="asciicircum">
          565 105 hstem
          98 404 vstem
          98 279 rmoveto
          97 hlineto
          56 151 47 135 -9 callsubr
          47 -135 56 -151 rlineto
          97 hlineto
          -154 391 rlineto
          -96 hlineto
          endchar
        </CharString>
        <CharString name="asciitilde">
          248 84 -4 84 hstemhm
          64 472 hintmask 01100000
          134 244 89 callgsubr
          hintmask 10100000
          19 callgsubr
          hintmask 01100000
          -57 -55 -36 -100 -38 hvcurveto
          endchar
        </CharString>
        <CharString name="asterisk">
          101 460 hstem
          263 74 vstem
          182 101 rmoveto
          118 150 118 -150 53 37 -103 161 158 69 -19 59 -165 -49 -10 183 rlineto
          -64 hlineto
          -10 -183 -165 49 -19 -59 158 -69 -103 -161 rlineto
          endchar
        </CharString>
        <CharString name="asterisk.a">
          297 415 hstem
          263 74 vstem
          198 297 rmoveto
          102 133 102 -133 53 37 -87 144 138 56 -19 59 -145 -37 -10 156 rlineto
          -64 hlineto
          -10 -157 -145 38 -19 -59 138 -56 -87 -144 rlineto
          endchar
        </CharString>
        <CharString name="at">
          -146 73 161 77 403 145 callsubr
          398 rmoveto
          137 -66 105 -145 -164 -133 -125 -263 -265 141 -133 82 callsubr
          110 211 221 104 99 107 97 44 -73 -85 hvcurveto
          -15 -12 callsubr
        </CharString>
        <CharString name="at.case">
          -22 73 105 77 361 145 callsubr
          454 rmoveto
          117 -65 95 -141 -165 -137 -110 -236 -228 141 -114 82 callsubr
          91 174 194 109 84 107 93 43 -57 -65 hvcurveto
          -9 -12 callsubr
        </CharString>
        <CharString name="atilde">
          -66 callsubr
          74 137 callgsubr
          71 111 -28 62 194 115 hintmask 1011011010000000
          -97 callsubr
          hintmask 0111011010000000
          -104 callgsubr
          hintmask 1011011010000000
          -104 callsubr
          hintmask 1011010110000000
          -28 436 rmoveto
          62 hlineto
          99 callgsubr
          hintmask 1011101010000000
          31 127 callgsubr
          hintmask 1011011010000000
          57 -10 callsubr
          hintmask 1011101010000000
          148 callgsubr
          hintmask 1011011010000000
          -29 -30 54 -48 hhcurveto
          hintmask 1011010110000000
          -57 -36 -47 -80 -10 hvcurveto
          endchar
        </CharString>
        <CharString name="atilde.a">
          -65 callgsubr
          106 73 -73 127 61 callsubr
          hintmask 10100111
          -107 callsubr
          hintmask 01010111
          -76 callsubr
          hintmask 10100111
          -100 callgsubr
          101 332 42 callsubr
          hintmask 10101011
          30 127 callgsubr
          hintmask 10100111
          58 -10 callsubr
          hintmask 10101011
          -38 -8 -13 -16 -21 hhcurveto
          hintmask 10100111
          78 callsubr
          -57 29 callsubr
        </CharString>
        <CharString name="b">
          -12 105 callgsubr
          91 callgsubr
          hintmask 01111100
          82 hmoveto
          91 hlineto
          hintmask 10111100
          123 callgsubr
          97 169 151 -74 98 -127 -53 -56 -25 -40 -43 hvcurveto
          4 86 rlineto
          182 -116 vlineto
          116 -578 rmoveto
          38 callsubr
          -53 -58 -69 -31 -41 12 33 -36 hvcurveto
          endchar
        </CharString>
        <CharString name="b.sups">
          252 69 204 68 hstem
          163 84 141 87 vstem
          163 260 rmoveto
          66 hlineto
          7 34 rlineto
          2 hlineto
          -27 28 34 -15 31 hhcurveto
          75 69 65 111 100 -49 65 -85 -34 -35 -16 -23 -27 hvcurveto
          2 53 rlineto
          118 -84 vlineto
          84 -380 rmoveto
          146 vlineto
          23 24 23 144 callsubr
          -24 6 18 -22 hvcurveto
          endchar
        </CharString>
        <CharString name="backslash">
          -160 870 hstem
          86 428 vstem
          415 -160 rmoveto
          99 hlineto
          -329 870 rlineto
          -99 hlineto
          endchar
        </CharString>
        <CharString name="bar">
          155 callgsubr
          -250 rmoveto
          102 1000 -102 hlineto
          endchar
        </CharString>
        <CharString name="braceleft">
          169 callgsubr
          113 137 -6 101 hintmask 11101000
          244 -14 rmoveto
          -106 59 -32 127 vhcurveto
          69 63 -46 hlineto
          -93 -20 20 60 hvcurveto
          58 5 50 64 vvcurveto
          70 -25 31 -70 12 vhcurveto
          4 vlineto
          70 12 25 31 70 61 -5 56 55 vvcurveto
          60 20 20 93 vhcurveto
          46 63 -69 hlineto
          -127 -59 -32 -106 hvcurveto
          -69 10 -50 -63 vvcurveto
          hintmask 11110000
          -36 -28 -38 -113 -1 vhcurveto
          -70 vlineto
          hintmask 11101000
          113 -1 28 -38 -36 -66 -10 -44 -72 vvcurveto
          endchar
        </CharString>
        <CharString name="braceright">
          169 callgsubr
          256 100 -5 136 hintmask 11110000
          102 -89 rmoveto
          -63 69 vlineto
          127 58 32 106 hvcurveto
          72 -10 44 66 vvcurveto
          hintmask 11101000
          36 28 38 113 1 vhcurveto
          70 vlineto
          hintmask 11110000
          -113 1 -28 38 36 63 10 50 69 vvcurveto
          106 -58 32 -127 vhcurveto
          -69 -63 46 hlineto
          92 21 -20 -60 hvcurveto
          -55 -5 -56 -61 vvcurveto
          -70 24 -31 71 -12 vhcurveto
          -4 vlineto
          -71 -12 -24 -31 -70 -64 5 -50 -58 vvcurveto
          -60 -21 -20 -92 vhcurveto
          endchar
        </CharString>
        <CharString name="bracketleft">
          -152 63 734 63 hstem
          213 89 vstem
          213 -152 rmoveto
          286 63 -197 734 197 63 -286 hlineto
          endchar
        </CharString>
        <CharString name="bracketright">
          -152 63 734 63 hstem
          298 90 vstem
          102 -89 rmoveto
          -63 286 860 -286 -63 196 -734 vlineto
          endchar
        </CharString>
        <CharString name="breve">
          575 65 hstem
          161 67 144 67 vstem
          300 575 -23 callsubr
        </CharString>
        <CharString name="brokenbar">
          155 callgsubr
          302 rmoveto
          102 448 -102 hlineto
          -541 vmoveto
          -459 102 459 vlineto
          endchar
        </CharString>
        <CharString name="bullet">
          108 308 hstem
          144 312 vstem
          85 callsubr
          rmoveto
          86 70 64 90 90 -70 64 -86 -86 -70 -64 -90 -90 70 -64 86 hvcurveto
          endchar
        </CharString>
        <CharString name="c">
          24 callsubr
          hstem
          73 119 -93 callsubr
          endchar
        </CharString>
        <CharString name="c.sups">
          252 68 206 67 hstem
          175 86 vstem
          175 422 rmoveto
          -107 74 -63 98 40 43 14 27 34 vhcurveto
          -35 54 rlineto
          -14 -20 -24 -13 -30 hhcurveto
          -55 -39 41 61 62 40 42 57 22 19 -8 -15 18 hvcurveto
          40 53 rlineto
          21 -24 -34 16 -45 hhcurveto
          -95 -84 -62 -109 hvcurveto
          endchar
        </CharString>
        <CharString name="cacute">
          -6 callsubr
          hstem
          73 119 -93 callsubr
          405 486 -51 callgsubr
        </CharString>
        <CharString name="caron">
          17 callsubr
        </CharString>
        <CharString name="ccaron">
          -6 callsubr
          hstem
          73 119 -93 callsubr
          220 328 rmoveto
          98 -31 callgsubr
          -86 hlineto
          endchar
        </CharString>
        <CharString name="ccedilla">
          -217 50 178 -21 419 94 hstem
          73 119 141 85 vstem
          376 -10 rmoveto
          60 6 59 24 48 42 -48 74 rcurveline
          -29 -38 -46 -25 -56 hhcurveto
          -97 -66 65 98 99 68 65 98 44 39 -16 -31 38 hvcurveto
          55 72 rlineto
          39 -41 -62 30 -79 hhcurveto
          -150 -129 -94 -164 -149 98 -91 134 -15 hvcurveto
          -33 -65 rlineto
          43 -11 18 -14 -21 vvcurveto
          -27 -36 -13 -74 callsubr
          41 -26 20 -33 12 vhcurveto
          endchar
        </CharString>
        <CharString name="ccircumflex">
          -6 callsubr
          hstem
          73 119 -93 callsubr
          121 328 rmoveto
          86 -31 callsubr
          -98 hlineto
          endchar
        </CharString>
        <CharString name="cdotaccent">
          24 callsubr
          74 155 hstem
          73 119 68 164 -93 callsubr
          269 332 -35 callsubr
        </CharString>
        <CharString name="cedilla">
          160 callgsubr
          296 85 vstem
          235 -75 rmoveto
          43 -11 18 -14 -21 vvcurveto
          -27 -36 -13 -74 callsubr
          41 -26 20 -33 12 vhcurveto
          23 49 rlineto
          -70 hlineto
          endchar
        </CharString>
        <CharString name="cent">
          -37 691 -191 93 hstemhm
          104 113 95 67 hintmask 10110000
          312 162 rmoveto
          -61 19 -34 53 74 vvcurveto
          73 34 54 61 20 vhcurveto
          155 -259 rmoveto
          -24 -19 -29 -18 -35 -4 rrcurveto
          hintmask 01110000
          308 vlineto
          27 -3 23 -12 23 -20 54 71 rcurveline
          -30 30 -43 24 -54 3 rrcurveto
          98 -67 -101 vlineto
          -119 -19 -89 -86 -140 vvcurveto
          -143 83 -87 125 -16 vhcurveto
          -99 67 99 vlineto
          48 5 49 21 39 35 rrcurveto
          endchar
        </CharString>
        <CharString name="circumflex">
          18 callgsubr
        </CharString>
        <CharString name="colon">
          -12 202 138 203 134 callsubr
          430 rmoveto
          -59 147 callsubr
          59 57 -42 44 -57 -57 -42 -44 -57 vhcurveto
          -341 vmoveto
          87 callsubr
        </CharString>
        <CharString name="colonmonetary">
          -11 91 -70 -21 29 -21 561 90 -5 -20 22 -20 hstemhm
          87 117 120 44 -41 44 46 43.5 hintmask 1001001011000000
          352 557 rmoveto
          1 4 5 0 5 hhcurveto
          12 11 -1 -3 11 hvcurveto
          -56 -475 -18 3 -15 5 -15 8 rlinecurve
          -40 33 rmoveto
          -34 42 -18 66 84 vvcurveto
          117 36 81 66 28 vhcurveto
          184 -405 rmoveto
          -30 -35 -32 -21 -40 -5 54 457 rcurveline
          14 -9 12 -10 13 -11 65 63 rcurveline
          -25 28 -33 21 -34 14 13 113 rcurveline
          -44 hlineto
          hintmask 0010011011000000
          -12 -101 rlineto
          hintmask 0011001101000000
          2 -12 -13 1 -12 -4 -4 0 -4 hhcurveto
          12 98 rlineto
          -44 hlineto
          hintmask 0010101101000000
          -12 -103 rlineto
          -141 -24 -90 -118 -185 vvcurveto
          -154 61 -105 95 -44 vhcurveto
          hintmask 0010011011000000
          -15 -123 rlineto
          44 hlineto
          13 107 15 -4 16 -3 17 -1 rlinecurve
          hintmask 0100011011000000
          -12 -99 rlineto
          44 hlineto
          12 99 72 4 57 34 49 54 rlinecurve
          endchar
        </CharString>
        <CharString name="comma">
          7 178 hstem
          317 96 vstem
          219 -215 rmoveto
          18 callsubr
        </CharString>
        <CharString name="comma.dnom">
          0 98 callsubr
          -123 -58 callgsubr
        </CharString>
        <CharString name="comma.numr">
          264 98 callsubr
          141 -58 callgsubr
        </CharString>
        <CharString name="comma.subs">
          -170 98 callsubr
          -293 -58 callgsubr
        </CharString>
        <CharString name="comma.sups">
          440 98 callsubr
          317 -58 callgsubr
        </CharString>
        <CharString name="copyright">
          -10 52 84 71 246 71 89 51 hstem
          24 56 62 87 291 56 vstem
          24 324 -29 callsubr
          62 -1 rmoveto
          -122 73 -75 95 47 34 19 25 31 vhcurveto
          -38 56 rlineto
          -16 -22 -19 -13 -30 hhcurveto
          -51 -33 49 77 69 34 51 55 23 16 -10 -17 18 hvcurveto
          45 50 rlineto
          27 -27 -32 21 -50 hhcurveto
          -89 -80 -74 -117 hvcurveto
          endchar
        </CharString>
        <CharString name="currency">
          132 82 231 82 hstem
          94 104 204 104 vstem
          106 73 rmoveto
          88 90 rlineto
          -21 32 36 -10 38 hhcurveto
          37 37 10 21 31 hvcurveto
          89 -90 59 60 -83 83 rlineto
          22 31 14 38 44 vvcurveto
          45 -13 38 -22 31 vhcurveto
          82 83 -59 60 -88 -90 rlineto
          20 -31 -38 11 -37 hhcurveto
          -38 -37 -11 -20 -31 hvcurveto
          -88 90 -59 -60 81 -83 rlineto
          -21 -31 -13 -38 -45 vvcurveto
          -44 13 -38 22 -31 vhcurveto
          -82 -83 rlineto
          151 196 rmoveto
          70 46 46 56 56 46 -46 -70 -69 -46 -46 -56 -56 -46 46 69 vhcurveto
          endchar
        </CharString>
        <CharString name="d">
          -12 60 callsubr
          230 116 hintmask 10111100
          53 -4 callgsubr
          hintmask 01111100
          9 -57 rlineto
          95 706 -116 -178 hlineto
          5 -83 rlineto
          36 -40 -39 22 -58 hhcurveto
          hintmask 10111100
          -66 callgsubr
          endchar
        </CharString>
        <CharString name="d.sups">
          14 callgsubr
          133 422 rmoveto
          -107 55 -63 84 36 35 19 23 25 vhcurveto
          2 hlineto
          6 -34 rlineto
          69 465 -84 -116 hlineto
          3 -51 rlineto
          21 -25 -25 14 11 callsubr
        </CharString>
        <CharString name="dagger">
          461 87.5 124 callgsubr
          253 -80 rmoveto
          94 hlineto
          -7 544 152 -6 59 callsubr
          6 rlineto
          endchar
        </CharString>
        <CharString name="daggerdbl">
          83.5 86 293 86 124 callgsubr
          108 80 rmoveto
          152 7 -7 -167 rlineto
          94 hlineto
          -7 167 152 -7 rlineto
          94 vlineto
          -152 -9 7 151 -7 151 152 -9 59 callsubr
          9 -7 -151 7 -151 -152 9 rlineto
          endchar
        </CharString>
        <CharString name="dcaron">
          -12 -36 callgsubr
          45 158 -158 217 hstemhm
          37 118 231 115 39 73.5 hintmask 10110111
          37 -4 callgsubr
          hintmask 01110111
          9 -57 rlineto
          94 706 -115 -178 hlineto
          5 -83 rlineto
          36 -40 -40 22 -57 hhcurveto
          hintmask 10110111
          -112 -105 -98 -160 hvcurveto
          118 1 rmoveto
          103 58 59 68 36 34 -12 -33 35 vhcurveto
          -221 vlineto
          -40 -34 -37 -19 -40 hhcurveto
          -75 -45 57 106 hvcurveto
          439 302 rmoveto
          hintmask 10101111
          19 154 1 63 rlineto
          -76 hlineto
          hintmask 10110111
          4 -217 rlineto
          endchar
        </CharString>
        <CharString name="dcroat">
          -12 95 -62 -21 388 95 81 59 -59 142 61 callsubr
          hintmask 10101110
          402 142 rmoveto
          -40 -34 -36 -19 -41 hhcurveto
          -75 -44 53 100 96 57 56 70 34 34 -13 -32 35 hvcurveto
          hintmask 10110110
          184 280 rmoveto
          -68 hlineto
          hintmask 10101110
          83 -116 vlineto
          hintmask 10110110
          -83 -164 vlineto
          hintmask 10101110
          -59 164 -56 vlineto
          5 -83 rlineto
          36 -40 -39 22 -58 hhcurveto
          -112 -105 -94 -154 -156 84 -91 126 55 55 31 38 38 hvcurveto
          3 hlineto
          hintmask 01101110
          9 -57 rlineto
          95 564 hlineto
          hintmask 10110110
          68 5 rlineto
          endchar
        </CharString>
        <CharString name="degree">
          413 59 155 58 hstem
          165 64 143 64 vstem
          301 413 rmoveto
          74 61 55 81 81 -61 55 -74 -74 -62 -55 -81 -81 62 -55 74 hvcurveto
          59 vmoveto
          -42 -30 32 45 46 30 32 42 42 29 -32 -46 -45 -29 -32 -42 hvcurveto
          endchar
        </CharString>
        <CharString name="dieresis">
          579 135 hstem
          131 133 72 133 vstem
          197 579 -43 callgsubr
        </CharString>
        <CharString name="divide">
          84 131 73 84 72 131 hstem
          232 136 vstem
          300 444 rmoveto
          38 30 27 39 38 -30 27 -38 -38 -30 -27 -38 -39 30 -27 38 hvcurveto
          -68 -294 rmoveto
          -39 30 -27 38 38 30 27 39 38 -30 27 -38 -38 -30 -27 -38 vhcurveto
          -154 138 rmoveto
          444 84 -444 hlineto
          endchar
        </CharString>
        <CharString name="dollar">
          35 93 396 222 hstem
          102 111 52 80 61 112 vstem
          504 537 rmoveto
          -41 41 -48 30 -70 8 rrcurveto
          130 -80 -131 vlineto
          -99 -13 -64 -58 -86 -179 304 18 -103 vvcurveto
          -40 -33 -26 -64 -69 -57 27 38 -57 vhcurveto
          -52 -79 49 -41 73 -31 69 -7 rlinecurve
          -145 80 147 vlineto
          109 16 64 64 85 183 -305 -15 90 vvcurveto
          40 34 24 55 61 36 -19 -35 47 vhcurveto
          endchar
        </CharString>
        <CharString name="dollar.a">
          34 94 396 94 hstem
          96 111 205 112 vstem
          331 268 rmoveto
          46 -19 35 -21 -34 vvcurveto
          -40 -33 -26 -64 vhcurveto
          -3 -4 0 -3 hhcurveto
          -24 269 rmoveto
          -43 17 -31 18 28 vvcurveto
          40 34 24 55 vhcurveto
          3 3 0 3 hhcurveto
          71 -14 rmoveto
          24 -9 21 -13 25 -18 58 67 rcurveline
          -30 30 -35 24 -45 14 25 137 rcurveline
          -72 9 -25 -133 rlineto
          -6 -6 0 -6 hhcurveto
          -124 -84 -62 -98 -93 85 -40 81 -31 hvcurveto
          -28 -154 -38 12 -35 19 -35 22 rlinecurve
          -52 -79 37 -31 52 -25 53 -13 rlinecurve
          -28 -151 72 -8 28 148 rlineto
          4 4 0 4 hhcurveto
          139 85 70 98 97 -90 42 -84 31 hvcurveto
          endchar
        </CharString>
        <CharString name="dong">
          0 62 51 79 210 80 56 62 hstem
          100 99 184 96 vstem
          112 hmoveto
          399 62 -399 hlineto
          271 174 rmoveto
          -32 -30 -28 -12 -34 hhcurveto
          -57 -35 38 73 59 45 40 51 35 23 -10 -24 30 hvcurveto
          96 232 rmoveto
          58 -96 -58 -155 -62 155 -24 vlineto
          4 -75 rlineto
          27 -33 -29 16 -51 hhcurveto
          -87 -87 -68 -112 -122 66 -67 103 49 41 20 30 30 hvcurveto
          3 hlineto
          8 -40 rlineto
          79 415 hlineto
          75 6 rlineto
          56 vlineto
          endchar
        </CharString>
        <CharString name="dotaccent">
          577 171 callsubr
          577 -35 callsubr
        </CharString>
        <CharString name="dotlessi">
          107 callgsubr
          hstem
          297 115 vstem
          -74 callgsubr
          endchar
        </CharString>
        <CharString name="e">
          -25 callsubr
          hstem
          62 118 256 106 vstem
          -107 callgsubr
          endchar
        </CharString>
        <CharString name="e.sups">
          252 64 85 52 76 64 -78 callgsubr
          endchar
        </CharString>
        <CharString name="eacute">
          -25 callsubr
          70 158 hstem
          62 118 256 106 vstem
          -107 callgsubr
          14 439 -51 callgsubr
        </CharString>
        <CharString name="eacute.sups">
          252 64 85 52 76 64 46 106 -78 callgsubr
          22 292 rmoveto
          -88 hlineto
          -60 -106 rlineto
          63 hlineto
          endchar
        </CharString>
        <CharString name="ebreve">
          -25 callsubr
          72 65 hstemhm
          62 118 -5 67 144 66 -16 106 hintmask 11111001
          -107 callgsubr
          hintmask 11110110
          -122 283 rmoveto
          93 42 73 72 3 hvcurveto
          -66 hlineto
          -43 -6 -22 -37 -44 hhcurveto
          -45 -22 37 43 -5 hvcurveto
          -67 hlineto
          -72 3 42 -73 94 hhcurveto
          endchar
        </CharString>
        <CharString name="ecaron">
          -25 callsubr
          70 158 hstem
          62 118 256 106 vstem
          -107 callgsubr
          -171 281 rmoveto
          97 66 callsubr
          -85 -65 callsubr
          -86 hlineto
          endchar
        </CharString>
        <CharString name="ecircumflex">
          -25 callsubr
          70 158 hstem
          62 118 256 106 vstem
          -107 callgsubr
          -270 281 rmoveto
          86 -72 callgsubr
          85 48 callgsubr
          -97 hlineto
          endchar
        </CharString>
        <CharString name="edieresis">
          -25 callsubr
          76 135 hstemhm
          62 118 -36 133 73 133 -47 106 hintmask 11111001
          -107 callgsubr
          hintmask 11110110
          -225 287 -43 callsubr
        </CharString>
        <CharString name="edotaccent">
          -25 callsubr
          74 155 hstem
          62 118 52 164 40 106 vstem
          -107 callgsubr
          -122 285 13 callgsubr
        </CharString>
        <CharString name="egrave">
          -25 callsubr
          70 158 hstem
          62 118 256 106 vstem
          -107 callgsubr
          -134 281 36 callsubr
        </CharString>
        <CharString name="egrave.sups">
          252 64 85 52 76 64 46 106 -78 callgsubr
          -86 186 rmoveto
          63 hlineto
          -60 106 rlineto
          -87 hlineto
          endchar
        </CharString>
        <CharString name="eight">
          -75 callgsubr
        </CharString>
        <CharString name="eight.dnom">
          -12 -7 callsubr
          84 -97 callgsubr
        </CharString>
        <CharString name="eight.numr">
          316 -7 callsubr
          412 -97 callgsubr
        </CharString>
        <CharString name="eight.onum">
          -75 callgsubr
        </CharString>
        <CharString name="eight.subs">
          -182 -7 callsubr
          -86 -97 callgsubr
        </CharString>
        <CharString name="eight.sups">
          428 -7 callsubr
          524 -97 callgsubr
        </CharString>
        <CharString name="ellipsis">
          -12 172 hstem
          15 162 42 162 42 162 vstem
          15 74 rmoveto
          27 callsubr
          204 hmoveto
          27 callsubr
          204 hmoveto
          27 callsubr
          endchar
        </CharString>
        <CharString name="emacron">
          -25 callsubr
          93 76 hstemhm
          62 118 3 261 -8 106 hintmask 11111010
          -107 callgsubr
          hintmask 11110100
          -253 304 9 callgsubr
          endchar
        </CharString>
        <CharString name="emdash">
          85 callgsubr
        </CharString>
        <CharString name="endash">
          84 callgsubr
        </CharString>
        <CharString name="eogonek">
          -208 71 125 -56 callsubr
          hstemhm
          62 118 150 79 27 106 hintmask 01111010
          483 117 rmoveto
          -25 -45 -42 -15 -51 hhcurveto
          -89 -68 49 88 -8 hvcurveto
          357 hlineto
          2 12 3 22 22 vvcurveto
          136 -82 97 -146 -128 -124 -97 -161 -162 119 -95 149 vhcurveto
          hintmask 11111110
          20 16 1 7 26 hvcurveto
          -28 -23 -34 -42 -51 vvcurveto
          -58 42 -30 55 28 39 12 18 23 vhcurveto
          -26 54 rlineto
          -8 -11 -12 -5 -15 hhcurveto
          -24 -20 14 28 42 23 35 90 63 hvcurveto
          -343 247 rmoveto
          80 13 59 42 66 hhcurveto
          hintmask 01111010
          78 41 -46 -76 hvcurveto
          endchar
        </CharString>
        <CharString name="equal">
          176 84 140 84 hstem
          78 444 vstem
          78 400 rmoveto
          444 84 -444 hlineto
          -308 vmoveto
          444 84 -444 hlineto
          endchar
        </CharString>
        <CharString name="estimated">
          -12 20 308 18 306 20 hstem
          26 130 290 128 vstem
          164 68 rmoveto
          -4 6 -4 6 8 vvcurveto
          224 vlineto
          2 2 2 2 vhcurveto
          414 hlineto
          2 0 4 2 vvcurveto
          186 -123 150 -151 -151 -123 -150 -186 -186 123 -150 151 90 78 52 80 54 vhcurveto
          -38 hlineto
          -68 -46 -66 -44 -70 hhcurveto
          -54 -50 22 38 -34 hvcurveto
          -4 266 rmoveto
          -2 -2 2 4 hvcurveto
          220 vlineto
          7 4 9 4 6 vhcurveto
          36 34 50 22 54 hhcurveto
          50 50 -20 -34 34 hvcurveto
          6 -6 4 -8 -8 vvcurveto
          -224 vlineto
          -4 -2 -2 -4 vhcurveto
          endchar
        </CharString>
        <CharString name="eth">
          -12 94 282 87 hstem
          53 107 274 109 vstem
          300 82 rmoveto
          -77 -63 54 89 86 50 53 89 47 46 -18 -50 41 hvcurveto
          1 -13 0 -13 -14 vvcurveto
          -108 -47 -66 -87 vhcurveto
          214 584 rmoveto
          -31 54 -136 -69 -44 33 -50 27 -52 24 rlinecurve
          -51 -71 40 -19 35 -19 32 -21 rlinecurve
          -127 -65 32 -53 150 76 53 -47 37 -57 18 -75 rlinecurve
          45 -35 -53 22 -54 hhcurveto
          -124 -101 -86 -140 -146 113 -91 130 154 93 113 161 156 -57 109 -86 81 hvcurveto
          endchar
        </CharString>
        <CharString name="exclam">
          -12 178 -157 -21 81 callgsubr
          262 244 rmoveto
          hintmask 01010000
          76 hlineto
          16 312 3 114 rlineto
          -114 hlineto
          3 -114 rlineto
          hintmask 01100000
          -33 -478 169 callsubr
          hintmask 10100000
          53 -38 35 -49 vhcurveto
          hintmask 01100000
          -49 -38 -35 -53 hvcurveto
          endchar
        </CharString>
        <CharString name="exclamdown">
          325 178 0 -20 81 callgsubr
          338 247 rmoveto
          hintmask 01010000
          -76 hlineto
          -16 -312 -3 -114 rlineto
          114 hlineto
          -3 114 rlineto
          hintmask 01100000
          33 478 170 callsubr
          hintmask 10100000
          -53 38 -35 49 vhcurveto
          hintmask 01100000
          49 38 35 53 hvcurveto
          endchar
        </CharString>
        <CharString name="f">
          107 callgsubr
          136 91 hstem
          228 114 vstem
          582 691 rmoveto
          17 -44 -49 10 -53 hhcurveto
          -144 -64 -84 -116 hvcurveto
          -27 vlineto
          -136 -5 rlineto
          -86 136 -400 114 400 187 91 -187 29 vlineto
          69 33 38 75 40 32 -7 -14 36 vhcurveto
          endchar
        </CharString>
        <CharString name="f.sups">
          519 66 82 66 hstem
          267 83 vstem
          506 716 rmoveto
          9 -29 -32 8 -36 hhcurveto
          -99 -43 -55 -76 hvcurveto
          -17 vlineto
          -77 -3 rlineto
          -63 77 -259 83 259 120 66 -120 18 vlineto
          40 22 24 47 26 22 -5 -8 22 vhcurveto
          endchar
        </CharString>
        <CharString name="fi">
          107 callgsubr
          86 157 -107 91 hstemhm
          95 115 172 170 -142 116 hintmask 11011010
          95 83 callsubr
          22 26 41 17 18 -4 -8 18 143 callsubr
          -47 -74 -102 hvcurveto
          315 -542 rmoveto
          116 491 -116 hlineto
          hintmask 11101100
          57 243 rmoveto
          -48 -37 -32 -47 -46 37 -32 48 49 36 32 46 47 -36 32 -49 hvcurveto
          endchar
        </CharString>
        <CharString name="figuredash">
          84 callgsubr
        </CharString>
        <CharString name="five">
          -12 94 241 83 133 97 hstem
          112 103 196 116 vstem
          51 76 rmoveto
          153 callsubr
          80 139 137 -99 62 -120 -39 -28 -8 -13 -33 hvcurveto
          14 154 rlineto
          275 97 -375 hlineto
          -20 -314 55 -35 rlineto
          25 44 27 11 47 hhcurveto
          81 55 -43 -76 -77 -61 -45 -80 -73 -50 32 36 -43 hvcurveto
          endchar
        </CharString>
        <CharString name="five.dnom">
          -12 -22 callgsubr
          36 -82 callgsubr
        </CharString>
        <CharString name="five.numr">
          316 -22 callgsubr
          364 -82 callgsubr
        </CharString>
        <CharString name="five.onum">
          -88 94 15 -21 256 83 139 98 hstemhm
          112 103 196 116 hintmask 01111100
          51 hmoveto
          hintmask 10111100
          153 callsubr
          82 143 141 -99 61 -120 -39 -28 -6 -14 -33 hvcurveto
          14 159 rlineto
          275 98 -375 hlineto
          -20 -320 55 -35 rlineto
          25 44 27 10 47 hhcurveto
          81 55 -42 -80 -81 -61 -47 -80 -73 -50 32 36 -43 hvcurveto
          endchar
        </CharString>
        <CharString name="five.subs">
          -182 -22 callgsubr
          -134 -82 callgsubr
        </CharString>
        <CharString name="five.sups">
          428 -22 callgsubr
          476 -82 callgsubr
        </CharString>
        <CharString name="fiveeighths">
          -12 57 218 57 -4 64 94 48 43 71 hstemhm
          74.5 69 72.5 84 2 118 callsubr
          hintmask 0011111000000000
          38 364 rmoveto
          -34 42 41 -14 50 hhcurveto
          74 55 46 62 62 -44 36 -66 -17 -20 -3 -6 -13 hvcurveto
          7 52 rlineto
          136 71 -201 hlineto
          -15 -157 36 -25 rlineto
          12 19 16 8 23 hhcurveto
          33 22 -16 -32 -29 -23 -17 -32 -34 -30 17 20 -22 -80 callgsubr
        </CharString>
        <CharString name="fl">
          -12 94 -61 139 callsubr
          136 91 -12 -20 hstemhm
          100 115 182 115 hintmask 01110110
          100 83 callsubr
          21 26 41 17 19 -4 -8 17 143 callsubr
          -46 -74 -102 hvcurveto
          hintmask 10101110
          455 -458 rmoveto
          -2 -9 -4 0 -5 hhcurveto
          -12 -13 10 28 hvcurveto
          586 -115 -580 vlineto
          -85 30 -53 81 28 19 4 6 14 vhcurveto
          endchar
        </CharString>
        <CharString name="four">
          21 -21 164 89 278 106 hstem
          354 108 vstem
          154 253 rmoveto
          134 177 22 34 24 34 21 33 rlinecurve
          5 hlineto
          -2 -38 -3 -50 -1 -38 rrcurveto
          -152 vlineto
          198 hmoveto
          -90 384 -133 hlineto
          -292 -395 rlineto
          -78 146 callsubr
        </CharString>
        <CharString name="four.dnom">
          67 40 callgsubr
          121 -67 callsubr
        </CharString>
        <CharString name="four.numr">
          395 40 callgsubr
          449 -67 callsubr
        </CharString>
        <CharString name="four.onum">
          88 90 293 105 hstem
          354 108 vstem
          153 178 rmoveto
          136 190 22 33 24 35 20 35 rlinecurve
          5 hlineto
          -2 -38 -3 -51 -1 -38 rrcurveto
          -166 vlineto
          198 hmoveto
          -90 398 -133 hlineto
          -292 -409 rlineto
          -79 146 callsubr
        </CharString>
        <CharString name="four.subs">
          -103 40 callgsubr
          -49 -67 callsubr
        </CharString>
        <CharString name="four.sups">
          507 40 callgsubr
          561 -67 callsubr
        </CharString>
        <CharString name="fraction">
          30 594 hstem
          22 556 vstem
          84 30 -94 callsubr
          endchar
        </CharString>
        <CharString name="g">
          -57 callgsubr
          10 callsubr
          199 102 -26 111 hintmask 1011101001000000
          -20 callsubr
          hintmask 1101100100100000
          -67 callgsubr
          hintmask 1011101001000000
          -53 callgsubr
          hintmask 1011100010100000
          -88 callgsubr
          hintmask 1011100101000000
          -70 callsubr
          hintmask 1011010101000000
          -73 callsubr
          hintmask 1011100011000000
          -54 callsubr
          hintmask 1011101001000000
          54 callsubr
          hintmask 1011010101000000
          -79 callgsubr
          endchar
        </CharString>
        <CharString name="g.a">
          -38 callgsubr
          hstemhm
          53 117 232 116 hintmask 11101100
          -80 callsubr
          hintmask 11011100
          492 -91 vlineto
          hintmask 11101100
          -102 callgsubr
          endchar
        </CharString>
        <CharString name="g.supa">
          127 65 75 67 191 68 hstem
          133 85 143 84 vstem
          184 219 rmoveto
          -29 -56 rlineto
          -24 37 50 -12 38 hhcurveto
          105 60 47 83 hvcurveto
          328 -68 vlineto
          -7 -30 rlineto
          -2 hlineto
          26 -26 -30 12 -35 hhcurveto
          -72 -72 -65 -100 -97 55 -64 84 34 33 15 21 24 hvcurveto
          -2 -47 rlineto
          -38 -1 -26 -26 -54 hhcurveto
          -29 -36 9 18 -31 hvcurveto
          109 115 rmoveto
          -45 -30 36 59 60 35 36 41 21 24 -7 -18 22 hvcurveto
          -131 vlineto
          -25 -21 -22 -10 -25 hhcurveto
          endchar
        </CharString>
        <CharString name="g.sups">
          118 53 78 66 48 52 109 61 -48 56 hstemhm
          141 70 -54 79 -76 67 124 75 -23 80 hintmask 1111010001000000
          211 216 rmoveto
          13 8 13 21 12 vhcurveto
          -3 13 14 -2 22 hhcurveto
          50 hlineto
          41 23 -5 -24 -26 -41 -23 -61 -57 -33 17 28 hvcurveto
          -70 -12 rmoveto
          -58 61 -28 89 117 75 50 66 57 -45 24 -86 vhcurveto
          hintmask 1111000110000000
          -66 hlineto
          -40 -19 8 20 13 6 7 12 8 hvcurveto
          -5 18 15 -3 16 hhcurveto
          75 57 36 74 21 -9 18 -10 12 hvcurveto
          74 61 -135 hlineto
          6 -15 -19 2 -18 hhcurveto
          hintmask 1111001010000000
          -74 -63 -41 -76 -38 19 -30 24 -16 hvcurveto
          -3 vlineto
          hintmask 1111000110000000
          -25 -16 -15 -23 -22 vvcurveto
          -27 15 -17 18 -10 vhcurveto
          -3 vlineto
          hintmask 1111010001000000
          -34 -18 -18 -24 -25 vvcurveto
          hintmask 1110101010000000
          153 211 rmoveto
          -33 -25 22 39 37 25 24 33 31 26 -24 -37 -39 -26 -22 -31 hvcurveto
          endchar
        </CharString>
        <CharString name="gbreve">
          -57 callgsubr
          72 65 10 callsubr
          -16 67 144 67 -63 102 -26 111 hintmask 1011101100001000
          -20 callsubr
          hintmask 1101101010000100
          -67 callgsubr
          hintmask 1011101100001000
          -53 callgsubr
          hintmask 1011101001000100
          -88 callgsubr
          hintmask 1011101010001000
          -70 callsubr
          hintmask 1011011010001000
          -73 callsubr
          hintmask 1011101001001000
          -54 callsubr
          hintmask 1011101100001000
          54 callsubr
          hintmask 1011011010001000
          -79 callgsubr
          hintmask 1011101000110000
          18 347 rmoveto
          113 callsubr
          -6 -22 -37 -44 -1 callgsubr
        </CharString>
        <CharString name="gbreve.a">
          -38 callgsubr
          104 65 hstemhm
          53 117 0 66 144 67 -45 116 hintmask 1110110010000000
          -80 callsubr
          hintmask 1101110010000000
          492 -91 vlineto
          hintmask 1110110010000000
          -102 callgsubr
          hintmask 1110101100000000
          17 472 -51 callsubr
          endchar
        </CharString>
        <CharString name="gcaron">
          -90 callgsubr
          -31 345 rmoveto
          98 hlineto
          98 158 rlineto
          -85 -65 callsubr
          -86 hlineto
          endchar
        </CharString>
        <CharString name="gcaron.a">
          -38 callgsubr
          102 158 hstemhm
          53 117 232 116 hintmask 11101110
          -80 callsubr
          hintmask 11011110
          492 -91 vlineto
          hintmask 11101110
          -102 callgsubr
          -31 470 rmoveto
          97 -50 callgsubr
        </CharString>
        <CharString name="gcircumflex">
          -90 callgsubr
          -130 345 rmoveto
          86 -72 callgsubr
          85 hlineto
          -98 158 rlineto
          -98 hlineto
          endchar
        </CharString>
        <CharString name="gcircumflex.a">
          -38 callgsubr
          102 158 hstemhm
          53 117 232 116 hintmask 11101110
          -80 callsubr
          hintmask 11011110
          492 -91 vlineto
          hintmask 11101110
          -102 callgsubr
          -130 470 -42 callsubr
          -97 hlineto
          endchar
        </CharString>
        <CharString name="gdotaccent">
          -57 callgsubr
          74 155 10 callsubr
          41 164 -6 -87 callsubr
          hintmask 1011101010100000
          18 349 -35 callsubr
        </CharString>
        <CharString name="gdotaccent.a">
          -38 callgsubr
          106 155 hstemhm
          53 117 56 164 12 116 hintmask 11101101
          -80 callsubr
          hintmask 11011101
          492 -91 vlineto
          hintmask 11101101
          -102 callgsubr
          hintmask 11101111
          17 474 84 callsubr
        </CharString>
        <CharString name="germandbls">
          -12 87 -54 -21 627 91 hstemhm
          74 115 93 108 -33 108 -5 108 hintmask 01110100
          74 hmoveto
          115 496 hlineto
          84 35 47 63 44 26 -32 -42 vhcurveto
          -81 -75 -30 -85 vvcurveto
          hintmask 10111010
          -135 178 8 -95 vvcurveto
          -33 -24 -27 -41 -32 -31 10 23 -33 vhcurveto
          -41 -79 rlineto
          -26 43 42 -15 56 hhcurveto
          106 63 69 87 hvcurveto
          152 -178 -6 81 60 75 31 98 vvcurveto
          hintmask 10110100
          82 -59 76 -118 -139 -75 -88 -123 vhcurveto
          endchar
        </CharString>
        <CharString name="grave">
          78 callgsubr
          164 210 vstem
          288 573 -17 callgsubr
        </CharString>
        <CharString name="greater">
          39 586 hstem
          385 97 vstem
          482 373 rmoveto
          -380 252 rlineto
          -107 vlineto
          283 -184 rlineto
          -4 vlineto
          -283 -184 rlineto
          -107 vlineto
          380 252 rlineto
          endchar
        </CharString>
        <CharString name="greaterequal">
          0 83 hstemhm
          78 444 -117 117 hintmask 11000000
          78 hmoveto
          444 83 -444 hlineto
          hintmask 10100000
          444 316 rmoveto
          -444 148 rlineto
          -97 vlineto
          190 -59 137 -39 rlineto
          -4 vlineto
          -137 -39 -190 -59 rlineto
          -97 vlineto
          444 148 rlineto
          endchar
        </CharString>
        <CharString name="guillemotleft">
          38 428 hstem
          62 461 vstem
          224 38 7 callgsubr
          410 -157 7 callgsubr
          endchar
        </CharString>
        <CharString name="guillemotright">
          38 428 hstem
          77 461 vstem
          77 83 4 callsubr
          121 -169 4 callsubr
          endchar
        </CharString>
        <CharString name="guilsinglleft">
          38 428 hstem
          186 213 vstem
          348 38 7 callgsubr
          endchar
        </CharString>
        <CharString name="guilsinglright">
          38 428 hstem
          201 213 vstem
          201 83 4 callsubr
          endchar
        </CharString>
        <CharString name="h">
          21 126 callgsubr
          203 -20 hstem
          65 callsubr
          vstem
          -99 callgsubr
          -45 -45 vhcurveto
          7 105 rlineto
          182 -116 vlineto
          endchar
        </CharString>
        <CharString name="h.sups">
          -4 callsubr
          -27 -28 vhcurveto
          5 65 rlineto
          118 -85 vlineto
          endchar
        </CharString>
        <CharString name="hbar">
          21 -21 384 99 81 56 -56 59 -59 142 hstemhm
          65 callsubr
          hintmask 11001110
          198 504 rmoveto
          60 196 vlineto
          hintmask 11010110
          59 -196 vlineto
          hintmask 11001110
          83 -116 vlineto
          hintmask 11100110
          -84 vlineto
          -69 -4 rlineto
          hintmask 11001110
          -54 69 -564 116 315 vlineto
          46 45 33 23 48 hhcurveto
          67 25 -36 -79 hvcurveto
          -269 116 284 vlineto
          127 -52 72 -113 -75 -56 -39 -45 -45 vhcurveto
          endchar
        </CharString>
        <CharString name="hcircumflex">
          21 126 callgsubr
          203 -20 63 116 hstem
          65 callsubr
          vstem
          -99 callgsubr
          -45 -45 vhcurveto
          7 105 rlineto
          182 -116 vlineto
          3 43 rmoveto
          60 65 69 callgsubr
          -65 rlineto
          90 hlineto
          -96 -29 callgsubr
          -112 hlineto
          -96 -116 rlineto
          endchar
        </CharString>
        <CharString name="hungarumlaut">
          572 147 hstem
          188 324 vstem
          188 572 3 callgsubr
        </CharString>
        <CharString name="hyphen">
          12 callsubr
        </CharString>
        <CharString name="hyphen.a">
          68 callgsubr
        </CharString>
        <CharString name="i">
          21 -21 400 61 callgsubr
          26 callgsubr
          hintmask 11110000
          262 86 84 callsubr
        </CharString>
        <CharString name="i.sups">
          519 66 54 108 hstemhm
          288 116 -99 84 hintmask 10010000
          172 519 rmoveto
          133 -259 84 325 -217 hlineto
          hintmask 11100000
          174 54 rmoveto
          34 24 21 33 32 -24 131 callsubr
        </CharString>
        <CharString name="iacute">
          107 callgsubr
          82 158 hstem
          297 115 vstem
          -74 callgsubr
          399 240 -3 callsubr
        </CharString>
        <CharString name="icircumflex">
          107 callgsubr
          82 158 hstem
          297 115 vstem
          -74 callgsubr
          115 82 -42 callsubr
          -97 hlineto
          endchar
        </CharString>
        <CharString name="idieresis">
          107 callgsubr
          88 135 hstemhm
          177 133 -13 115 -29 133 26 callgsubr
          hintmask 11110100
          160 88 -43 callsubr
        </CharString>
        <CharString name="igrave">
          107 callgsubr
          82 158 hstem
          297 115 vstem
          -74 callgsubr
          250 82 -17 callgsubr
        </CharString>
        <CharString name="imacron">
          107 callgsubr
          105 76 hstemhm
          216 261 -180 115 26 callgsubr
          hintmask 11110000
          132 105 9 callgsubr
          endchar
        </CharString>
        <CharString name="infinity">
          136 107 -85 86 152 107 -69 85 hstemhm
          -9 87 444 87 hintmask 01011100
          130 158 rmoveto
          65 44 43 49 30 hvcurveto
          4 hlineto
          hintmask 10011100
          -84 52 48 -30 73 hhcurveto
          93 70 76 126 105 -69 76 -90 -70 -50 -38 -70 -43 hvcurveto
          -4 hlineto
          hintmask 10101100
          54 -30 -43 38 -64 hhcurveto
          -89 -66 -68 -115 hvcurveto
          hintmask 01011100
          -88 62 -74 77 vhcurveto
          hintmask 10011100
          191 187 rmoveto
          62 35 36 27 41 hhcurveto
          55 34 -40 -59 -50 -30 -42 -52 -48 -34 31 71 -37 hvcurveto
          hintmask 01101100
          -174 -101 rmoveto
          -40 -29 35 45 43 24 29 41 34 30 -23 -57 28 hvcurveto
          -48 -23 -29 -24 -36 hhcurveto
          endchar
        </CharString>
        <CharString name="integral">
          -158 88 772 88 hstemhm
          238 105 -65 104 hintmask 11010000
          178 -66 rmoveto
          -12 -85 rlineto
          -3 10 20 -4 23 hhcurveto
          135 28 102 136 hvcurveto
          hintmask 11100000
          157 -39 169 150 vvcurveto
          98 11 48 53 14 12 -1 -3 9 vhcurveto
          12 85 rlineto
          4 -9 -21 3 -21 hhcurveto
          -137 -28 -103 -135 hvcurveto
          hintmask 11010000
          -156 40 -170 -150 vvcurveto
          -99 -11 -47 -54 -14 -12 1 3 -9 vhcurveto
          endchar
        </CharString>
        <CharString name="iogonek">
          -208 71 158 139 callsubr
          86 155 hstemhm
          263 81 -80 164 -131 115 hintmask 11110010
          297 hmoveto
          hintmask 11111000
          95 callgsubr
          hintmask 11110010
          37 callsubr
          hintmask 11110100
          49 177 84 callsubr
        </CharString>
        <CharString name="iogonek.d">
          -208 71 158 139 callsubr
          hstemhm
          263 81 -47 115 hintmask 11101000
          297 hmoveto
          hintmask 11110000
          95 callgsubr
          hintmask 11101000
          37 callsubr
          endchar
        </CharString>
        <CharString name="itilde">
          107 callgsubr
          86 137 callgsubr
          297 115 hintmask 11011000
          -74 callgsubr
          106 86 42 callsubr
          hintmask 11101000
          30 127 callgsubr
          hintmask 11011000
          58 -10 callsubr
          hintmask 11101000
          -38 -8 -13 -16 -21 hhcurveto
          hintmask 11011000
          78 callsubr
          -57 29 callsubr
        </CharString>
        <CharString name="j">
          -206 91 515 61 callgsubr
          hintmask 11101000
          -44 callsubr
          hintmask 11110000
          262 86 84 callsubr
        </CharString>
        <CharString name="j.sups">
          126 66 327 66 54 108 hstemhm
          276 117 -99 83 hintmask 11101000
          161 519 rmoveto
          133 -252 hlineto
          -50 -16 -25 -53 -19 -21 5 11 -23 vhcurveto
          -26 -60 rlineto
          -12 26 31 -10 36 hhcurveto
          115 33 65 80 hvcurveto
          314 -216 vlineto
          hintmask 11110000
          173 54 rmoveto
          34 25 21 33 32 -25 131 callsubr
        </CharString>
        <CharString name="jcircumflex">
          -206 91 515 91 82 158 hstem
          297 115 vstem
          -44 callsubr
          115 82 -42 callsubr
          -97 hlineto
          endchar
        </CharString>
        <CharString name="k">
          21 -19 callgsubr
          235 -20 hstem
          90 116 4 callgsubr
          endchar
        </CharString>
        <CharString name="k.sups">
          260 465 hstem
          174 84 vstem
          174 260 rmoveto
          84 83 hlineto
          58 55 94 -138 rlineto
          92 hlineto
          -137 193 124 132 rlineto
          -92 hlineto
          -136 -141 rlineto
          -3 281 -84 hlineto
          endchar
        </CharString>
        <CharString name="kgreenlandic">
          21 -19 callgsubr
          hstem
          90 116 vstem
          90 hmoveto
          116 126 hlineto
          94 91 154 -217 rlineto
          126 hlineto
          -211 293 190 198 rlineto
          -128 hlineto
          -222 -225 -3 -1 rlineto
          226 -116 vlineto
          endchar
        </CharString>
        <CharString name="l">
          -12 94 533 91 hstem
          226 115 vstem
          -93 callgsubr
          endchar
        </CharString>
        <CharString name="l.sups">
          252 68 339 66 hstem
          264 84 vstem
          189 659 rmoveto
          75 -280 hlineto
          -79 35 -48 80 35 20 6 7 28 vhcurveto
          -15 65 rlineto
          -7 -19 -13 -3 -14 hhcurveto
          -34 -19 14 41 hvcurveto
          350 -159 vlineto
          endchar
        </CharString>
        <CharString name="lacute">
          -12 94 533 91 52 116 hstem
          226 115 vstem
          -93 callgsubr
          346 168 50 callsubr
          endchar
        </CharString>
        <CharString name="lcaron">
          -12 94 466 217 -150 91 hstemhm
          226 115 65 74 hintmask 10111000
          -93 callgsubr
          hintmask 11011000
          389 -158 rmoveto
          19 154 2 63 rlineto
          -77 hlineto
          4 -217 rlineto
          endchar
        </CharString>
        <CharString name="ldot">
          -12 94 190 155 188 91 hstem
          182 115 75 164 vstem
          27 615 rmoveto
          155 -436 hlineto
          -121 60 -70 114 58 34 12 16 48 vhcurveto
          -27 85 rlineto
          -13 -33 -26 -6 -25 hhcurveto
          -50 -38 25 66 hvcurveto
          533 -270 vlineto
          427 -434 rmoveto
          48 34 31 46 47 -34 31 -48 -47 -35 -31 -47 110 callgsubr
        </CharString>
        <CharString name="less">
          39 586 hstem
          118 97 vstem
          118 291 rmoveto
          380 -252 rlineto
          107 vlineto
          -283 184 rlineto
          4 vlineto
          283 184 rlineto
          107 vlineto
          -380 -252 rlineto
          endchar
        </CharString>
        <CharString name="lessequal">
          0 83 hstemhm
          78 117 -117 444 hintmask 10100000
          78 hmoveto
          444 83 -444 hlineto
          hintmask 11000000
          218 vmoveto
          444 -148 rlineto
          97 vlineto
          -190 59 -137 39 rlineto
          4 vlineto
          137 39 190 59 rlineto
          97 vlineto
          -444 -148 rlineto
          endchar
        </CharString>
        <CharString name="lira">
          0 98 128 62 53 62 151 94 hstemhm
          139 110 -56 101 hintmask 11110100
          230 98 rmoveto
          4 vlineto
          41 36 21 35 2 53 rrcurveto
          155 62 -161 hlineto
          -4 18 -5 18 -6 17 rrcurveto
          176 62 hlineto
          hintmask 11111000
          -194 hlineto
          -4 15 -2 15 15 45 callsubr
          -17 3 -17 5 -18 hvcurveto
          -73 -4 rlineto
          -57 94 vlineto
          7 -18 6 -17 5 -18 rrcurveto
          -28 hlineto
          -84 -6 rlineto
          -56 vlineto
          hintmask 11110100
          119 hlineto
          -5 -68 -44 -57 -71 -30 rrcurveto
          -71 468 98 vlineto
          endchar
        </CharString>
        <CharString name="logicalnot">
          288 84 hstem
          435 87 vstem
          78 288 rmoveto
          357 -189 87 273 -444 hlineto
          endchar
        </CharString>
        <CharString name="lozenge">
          -10 97 486 97 hstem
          88 424 vstem
          251 -10 rmoveto
          98 hlineto
          163 340 -163 340 rlineto
          -98 hlineto
          -163 -340 rlineto
          210 -243 rmoveto
          -58 126 -55 117 55 116 58 127 -9 callsubr
          58 -127 55 -116 -55 -117 -58 -126 rlineto
          endchar
        </CharString>
        <CharString name="lslash">
          -12 94 533 91 hstem
          226 115 vstem
          513 101 rmoveto
          -13 -33 -26 -6 -25 hhcurveto
          -50 -38 25 66 hvcurveto
          188 vlineto
          156 86 rlineto
          95 vlineto
          -156 -86 rlineto
          250 -270 -91 155 -217 vlineto
          -118 -67 rlineto
          -95 vlineto
          118 68 rlineto
          -125 vlineto
          -121 60 -70 115 57 35 12 16 47 vhcurveto
          endchar
        </CharString>
        <CharString name="m">
          21 117 callsubr
          48 109 104 90 105 109 hintmask 10111100
          48 hmoveto
          109 hlineto
          hintmask 11011100
          -27 callgsubr
          hintmask 10111100
          -9 63 rlineto
          -87 hlineto
          endchar
        </CharString>
        <CharString name="m.sups">
          522 71 hstem
          123 79 63 67 62 80 vstem
          123 260 rmoveto
          79 224 hlineto
          25 12 11 13 15 hhcurveto
          17 8 -12 -26 hvcurveto
          -224 67 224 vlineto
          25 11 11 13 16 hhcurveto
          17 7 -12 -26 hvcurveto
          -224 80 230 vlineto
          65 -27 38 -46 -37 -23 -23 -31 -15 vhcurveto
          36 -7 -22 18 -30 hhcurveto
          -38 -20 -21 -28 -14 hvcurveto
          -2 hlineto
          -7 41 rlineto
          -63 hlineto
          endchar
        </CharString>
        <CharString name="macron">
          6 callgsubr
        </CharString>
        <CharString name="minus">
          12 callsubr
        </CharString>
        <CharString name="multiply">
          119 421 hstem
          93 414 vstem
          152 119 rmoveto
          148 151 148 -151 59 60 -148 150 148 151 -59 60 -148 -152 -148 152 -59 -60 148 -151 -148 -150 rlineto
          endchar
        </CharString>
        <CharString name="n">
          21 49 callgsubr
          218 116 hintmask 11011000
          -99 callgsubr
          -47 -46 vhcurveto
          -4 hlineto
          hintmask 10111000
          107 callsubr
          endchar
        </CharString>
        <CharString name="n.sups">
          -4 callsubr
          -29 -30 vhcurveto
          -3 hlineto
          -6 45 rlineto
          -69 hlineto
          endchar
        </CharString>
        <CharString name="nacute">
          21 -21 404 99 44 callgsubr
          65 callsubr
          hintmask 11011100
          -99 callgsubr
          -47 -46 vhcurveto
          -4 hlineto
          hintmask 10111100
          107 callsubr
          371 240 -3 callsubr
        </CharString>
        <CharString name="napostrophe">
          21 53 callsubr
          56 171 hstemhm
          73 86 47 116 184 115 hintmask 11001110
          -1 319 rmoveto
          104 50 56 84 104 vvcurveto
          hintmask 11011110
          88 -41 53 -63 -50 -35 -36 -54 -48 33 -33 48 7 8 1 3 7 vhcurveto
          -4 -66 -38 -49 -65 -34 rrcurveto
          hintmask 11001110
          344 39 rmoveto
          hintmask 10101110
          -9 70 rlineto
          -95 -491 116 hlineto
          hintmask 11001110
          339 vlineto
          43 40 26 22 42 hhcurveto
          54 22 -35 -76 hvcurveto
          -293 115 308 vlineto
          124 -47 71 -102 -68 -47 -37 -45 -43 vhcurveto
          endchar
        </CharString>
        <CharString name="nbspace.frac">
          endchar
        </CharString>
        <CharString name="ncaron">
          21 -21 404 99 44 callgsubr
          65 callsubr
          hintmask 11011100
          -99 callgsubr
          -47 -46 vhcurveto
          -4 hlineto
          hintmask 10111100
          107 callsubr
          186 82 rmoveto
          97 -50 callgsubr
        </CharString>
        <CharString name="nine">
          -12 94 161 83 234 88 hstem
          60 106 259 106 vstem
          281 326 rmoveto
          -72 -43 38 76 77 53 43 63 71 54 -48 -111 14 hvcurveto
          -54 -46 -50 -21 -44 hhcurveto
          -211 -266 153 callgsubr
          103 247 214 -116 96 -135 -117 -103 -81 -127 -133 83 -64 115 55 62 29 47 50 hvcurveto
          -177 -6 -78 -60 -89 hhcurveto
          -46 -44 20 28 -30 hvcurveto
          endchar
        </CharString>
        <CharString name="nine.dnom">
          -12 8 callsubr
          213 -89 callsubr
        </CharString>
        <CharString name="nine.numr">
          316 8 callsubr
          541 -89 callsubr
        </CharString>
        <CharString name="nine.onum">
          -88 94 162 83 249 88 hstem
          60 106 258 107 vstem
          281 251 rmoveto
          -72 -43 43 80 83 53 43 63 74 55 -52 -121 12 hvcurveto
          -55 -47 -51 -21 -44 hhcurveto
          -211 -267 153 callgsubr
          106 259 214 -116 97 -135 -117 -103 -83 -131 -137 83 -69 115 55 62 29 47 49 hvcurveto
          -179 -8 -77 -59 -87 hhcurveto
          -46 -44 20 28 -30 hvcurveto
          endchar
        </CharString>
        <CharString name="nine.subs">
          -182 8 callsubr
          43 -89 callsubr
        </CharString>
        <CharString name="nine.sups">
          428 8 callsubr
          653 -89 callsubr
        </CharString>
        <CharString name="notequal">
          176 84 140 84 hstem
          78 444 vstem
          100 52 rmoveto
          77 hlineto
          74 124 rlineto
          271 84 -224 hlineto
          82 140 rlineto
          142 84 -96 hlineto
          74 124 rlineto
          -77 hlineto
          -74 -124 rlineto
          -271 -84 224 hlineto
          -82 -140 rlineto
          -142 -84 96 hlineto
          endchar
        </CharString>
        <CharString name="ntilde">
          21 53 callsubr
          106 137 callgsubr
          65 callsubr
          hintmask 11001110
          -99 callgsubr
          -47 -46 vhcurveto
          -4 hlineto
          hintmask 10101110
          107 callsubr
          78 86 42 callsubr
          hintmask 11010110
          30 127 callgsubr
          hintmask 11001110
          58 -10 callsubr
          hintmask 11010110
          -38 -8 -13 -16 -21 hhcurveto
          hintmask 11001110
          78 callsubr
          hintmask 10101110
          -57 29 callsubr
        </CharString>
        <CharString name="numbersign">
          21 -21 195 76 129 76 hstem
          78 448 vstem
          132 hmoveto
          70 hlineto
          23 195 rlineto
          118 hlineto
          -24 -195 rlineto
          70 hlineto
          24 195 rlineto
          93 76 -84 hlineto
          16 129 rlineto
          88 76 -79 hlineto
          21 174 rlineto
          -69 hlineto
          -22 -174 rlineto
          -118 hlineto
          21 174 rlineto
          -68 hlineto
          -23 -174 rlineto
          -91 -76 82 hlineto
          -16 -129 rlineto
          -86 -76 77 hlineto
          79 76 rmoveto
          16 129 rlineto
          118 hlineto
          -16 -129 rlineto
          endchar
        </CharString>
        <CharString name="o">
          24 callsubr
          hstem
          53 119 256 119 vstem
          -105 callgsubr
          endchar
        </CharString>
        <CharString name="o.sups">
          -23 callgsubr
        </CharString>
        <CharString name="oacute">
          -6 callsubr
          hstem
          53 119 256 119 vstem
          -105 callgsubr
          264 486 -51 callgsubr
        </CharString>
        <CharString name="ocircumflex">
          -6 callsubr
          hstem
          53 119 256 119 vstem
          -105 callgsubr
          -20 328 rmoveto
          86 -31 callsubr
          -98 hlineto
          endchar
        </CharString>
        <CharString name="odieresis">
          24 callsubr
          76 135 86 callgsubr
          -41 133 72 133 -41 119 hintmask 11110010
          -105 callgsubr
          hintmask 11101100
          25 334 -43 callgsubr
        </CharString>
        <CharString name="oe">
          -12 93 133 73 123 93 -89 89 hstemhm
          11 105 159 82 145 92 hintmask 11101110
          116 246 rmoveto
          98 28 66 54 48 29 -66 -98 -99 -29 -66 -48 -54 -28 66 99 vhcurveto
          -105 hmoveto
          -164 79 -94 101 61 41 33 61 29 vhcurveto
          -61 28 49 -33 57 hhcurveto
          44 45 18 27 35 hvcurveto
          -40 75 rlineto
          -18 -26 -23 -11 -30 hhcurveto
          -59 -36 51 84 -8 hvcurveto
          232 hlineto
          3 21 1 15 22 vvcurveto
          126 -51 105 -96 -56 -43 -37 -64 -27 vhcurveto
          63 -25 -44 38 -59 hhcurveto
          -101 -81 -94 -163 hvcurveto
          346 41 rmoveto
          hintmask 11011110
          81 7 28 46 46 hhcurveto
          49 15 -59 -68 hvcurveto
          endchar
        </CharString>
        <CharString name="ogonek">
          -11 callsubr
        </CharString>
        <CharString name="ograve">
          -6 callsubr
          hstem
          53 119 256 119 vstem
          -105 callgsubr
          116 328 -17 callgsubr
        </CharString>
        <CharString name="ohorn">
          24 callsubr
          134 callgsubr
          -68 91 hintmask 11110000
          300 82 -50 callsubr
          hintmask 11101000
          -86 callgsubr
          hintmask 11110000
          -18 callgsubr
          hintmask 11101000
          60 16 43 35 62 -34 callsubr
        </CharString>
        <CharString name="ohungarumlaut">
          24 callsubr
          69 147 hstem
          53 119 256 119 vstem
          -105 callgsubr
          16 327 3 callgsubr
        </CharString>
        <CharString name="omacron">
          24 callsubr
          93 76 86 callgsubr
          -2 260 -2 119 hintmask 11110100
          -105 callgsubr
          hintmask 11101000
          -2 351 rmoveto
          260 76 -260 hlineto
          endchar
        </CharString>
        <CharString name="one">
          0 94 418 124 hstem
          262 115 vstem
          377 94 rmoveto
          542 -84 vlineto
          -44 -24 -49 -16 -71 -12 rrcurveto
          -72 133 -418 -172 -94 443 94 vlineto
          endchar
        </CharString>
        <CharString name="one.dnom">
          221 98 callgsubr
          hmoveto
          -2 callsubr
        </CharString>
        <CharString name="one.numr">
          549 98 callgsubr
          328 rmoveto
          -2 callsubr
        </CharString>
        <CharString name="one.onum">
          0 94 357 125 hstem
          262 115 vstem
          377 94 rmoveto
          482 -84 vlineto
          -44 -24 -49 -17 -71 -11 rrcurveto
          -73 133 -357 -172 -94 443 94 vlineto
          endchar
        </CharString>
        <CharString name="one.subs">
          51 98 callgsubr
          -170 rmoveto
          -2 callsubr
        </CharString>
        <CharString name="one.sups">
          661 98 callgsubr
          440 rmoveto
          -2 callsubr
        </CharString>
        <CharString name="oneeighth">
          -12 57 218 57 229 116 callsubr
          64 118 callsubr
          hintmask 1101100000000000
          103 callsubr
          hintmask 0010100000000000
          116 callgsubr
          hintmask 1001110010000000
          -53 82 vlineto
          -69 -519 -79 callsubr
        </CharString>
        <CharString name="onehalf">
          0 70 181 69 229 116 callsubr
          70 250 -96 83 hintmask 11011000
          103 callsubr
          hintmask 11101000
          116 callgsubr
          hintmask 11011100
          21 callgsubr
          -270 -565 rmoveto
          250 70 -114 hlineto
          hintmask 11011010
          30 callsubr
          hintmask 11011100
          -39 -61 -50 -93 -66 vhcurveto
          endchar
        </CharString>
        <CharString name="onequarter">
          0 121 -54 54 130 57 241 116 callsubr
          220 76 hintmask 10101110
          578 565 rmoveto
          -62 59 -165 -201 42 -39 rlineto
          -240 -56 rmoveto
          85 308 -67 hlineto
          hintmask 10110110
          116 callgsubr
          hintmask 10101110
          -53 82 vlineto
          -131 -460 rmoveto
          62 -59 165 201 -42 39 rlineto
          170 -149 rmoveto
          43 67 39 63 rlineto
          4 120 callsubr
          126 hmoveto
          -50 187 -103 hlineto
          hintmask 01101110
          -134 -200 rlineto
          -41 161 vlineto
          hintmask 10101110
          -67 76 vlineto
          hintmask 01101110
          67 50 vlineto
          endchar
        </CharString>
        <CharString name="onethird">
          -12 64 81 47 76 64 229 116 callsubr
          223 84 -70 84 hintmask 11101100
          103 callsubr
          hintmask 11110100
          116 callgsubr
          hintmask 11101101
          21 callgsubr
          -278 -529 rmoveto
          -46 callsubr
          -46 11 hvcurveto
          hintmask 11101110
          -30 callsubr
          hintmask 11101101
          96 callsubr
        </CharString>
        <CharString name="ordfeminine">
          -60 callgsubr
        </CharString>
        <CharString name="ordfeminine.a">
          -52 callgsubr
        </CharString>
        <CharString name="ordmasculine">
          -23 callgsubr
        </CharString>
        <CharString name="oslash">
          -12 90 335 90 hstem
          53 119 256 119 vstem
          412 334 rmoveto
          11 -26 5 -30 -33 vvcurveto
          -98 -48 -69 -80 -32 -26 11 19 -21 vhcurveto
          -34 50 rmoveto
          -10 25 -5 29 33 vvcurveto
          99 48 69 80 31 27 -11 -18 20 vhcurveto
          158 96 rmoveto
          -46 36 -48 -56 rlineto
          28 -41 -50 15 -51 hhcurveto
          -129 -118 -94 -164 -72 23 -59 38 -43 hvcurveto
          -50 -59 46 -36 47 56 rlineto
          -29 41 50 -15 52 hhcurveto
          129 118 94 163 73 -24 60 -37 43 hvcurveto
          endchar
        </CharString>
        <CharString name="otilde">
          24 callsubr
          74 137 callgsubr
          53 119 -28 61 190 61 -28 119 hintmask 11011001
          -105 callgsubr
          hintmask 11010101
          -28 332 rmoveto
          61 hlineto
          99 callgsubr
          hintmask 11101001
          31 127 callgsubr
          hintmask 11011010
          57 -10 callsubr
          hintmask 11101010
          100 callgsubr
          hintmask 11011001
          78 callsubr
          hintmask 11010101
          -57 29 callsubr
        </CharString>
        <CharString name="p">
          115 callgsubr
          -12 -20 hstemhm
          91 callgsubr
          hintmask 11101100
          194 46 rmoveto
          -37 40 50 -21 45 hhcurveto
          113 105 97 168 152 -73 98 -128 -56 -59 -29 -39 -42 hvcurveto
          -3 hlineto
          hintmask 11011100
          -9 56 rlineto
          -95 -685 116 154 hlineto
          168 vmoveto
          hintmask 11101100
          38 callsubr
          -53 -58 -70 hvcurveto
          hintmask 11011100
          -30 -41 12 33 -36 hvcurveto
          endchar
        </CharString>
        <CharString name="p.sups">
          252 69 204 68 hstem
          163 84 141 87 vstem
          244 287 rmoveto
          -22 28 28 -13 31 hhcurveto
          75 69 65 111 100 -48 65 -85 -37 -37 -18 -23 -28 hvcurveto
          -2 hlineto
          -6 33 rlineto
          -69 -451 84 100 hlineto
          111 vmoveto
          146 vlineto
          23 25 22 144 callsubr
          -23 6 18 -23 hvcurveto
          endchar
        </CharString>
        <CharString name="paragraph">
          654 -20 hstem
          60 279 53 114 vstem
          392 -80 rmoveto
          114 734 -114 hlineto
          -53 hmoveto
          -43 hlineto
          -132 -104 -56 -162 -152 107 -72 136 hvcurveto
          36 hlineto
          endchar
        </CharString>
        <CharString name="parenleft">
          -177 910 hstem
          194 99 vstem
          412 -177 rmoveto
          64 53 rlineto
          -127 115 -56 124 163 vvcurveto
          163 56 124 127 115 vhcurveto
          -64 53 rlineto
          -134 -111 -84 -154 -190 vvcurveto
          -190 84 -154 134 -111 vhcurveto
          endchar
        </CharString>
        <CharString name="parenleft.dnom">
          -83 74 callgsubr
          162 -59 callsubr
        </CharString>
        <CharString name="parenleft.numr">
          181 74 callgsubr
          426 -59 callsubr
        </CharString>
        <CharString name="parenleft.subs">
          -253 74 callgsubr
          -8 -59 callsubr
        </CharString>
        <CharString name="parenleft.sups">
          357 74 callgsubr
          602 -59 callsubr
        </CharString>
        <CharString name="parenright">
          -177 910 hstem
          307 99 vstem
          188 -177 rmoveto
          134 111 84 154 190 vvcurveto
          190 -84 154 -134 111 vhcurveto
          -64 -53 rlineto
          127 -115 56 -124 -163 vvcurveto
          -163 -56 -124 -127 -115 vhcurveto
          endchar
        </CharString>
        <CharString name="parenright.dnom">
          -83 72 callsubr
          162 -59 callgsubr
        </CharString>
        <CharString name="parenright.numr">
          181 72 callsubr
          426 -59 callgsubr
        </CharString>
        <CharString name="parenright.subs">
          -253 72 callsubr
          -8 -59 callgsubr
        </CharString>
        <CharString name="parenright.sups">
          357 72 callsubr
          602 -59 callgsubr
        </CharString>
        <CharString name="partialdiff">
          -12 94 240 90 166 94 hstem
          68 107 247 110 vstem
          269 82 rmoveto
          -50 -44 39 68 82 44 51 77 40 41 -18 -50 36 hvcurveto
          -117 -21 -55 -55 -68 hhcurveto
          -79 448 rmoveto
          31 32 35 17 41 hhcurveto
          82 42 -69 -139 hvcurveto
          -9 0 -8 -8 vvcurveto
          42 -37 -51 25 -51 hhcurveto
          -130 -85 -95 -134 -121 87 -74 102 163 112 152 227 194 -80 111 -142 -66 -56 -26 -44 -49 hvcurveto
          endchar
        </CharString>
        <CharString name="percent">
          -12 64 204 64 -4 64 204 64 hstemhm
          25 82 124 82 -26 82 124 82 hintmask 10111101
          169 316 -84 callsubr
          -84 -350 rmoveto
          165 201 -42 39 -185 -181 rlineto
          493 535 rmoveto
          -165 -201 42 -39 185 181 rlineto
          hintmask 11000011
          -147 -577 -84 callsubr
          endchar
        </CharString>
        <CharString name="period">
          -12 202 134 callsubr
          89 rmoveto
          87 callsubr
        </CharString>
        <CharString name="period.dnom">
          -8 48 callsubr
          48 -14 callgsubr
        </CharString>
        <CharString name="period.numr">
          256 48 callsubr
          312 -14 callgsubr
        </CharString>
        <CharString name="period.subs">
          -178 48 callsubr
          -122 -14 callgsubr
        </CharString>
        <CharString name="period.sups">
          432 48 callsubr
          488 -14 callgsubr
        </CharString>
        <CharString name="periodcentered">
          249 203 134 callsubr
          350 rmoveto
          170 callgsubr
          44 -57 -57 -42 -44 -58 vhcurveto
          endchar
        </CharString>
        <CharString name="perthousand">
          -12 52 155 53 141 52 155 52 hstem
          39 70 105 70 33 70 105 70 vstem
          162 389 rmoveto
          70 52 50 82 80 -52 47 -70 -71 -52 -47 -5 callgsubr
          386 71 rmoveto
          -449 -200 17 -38 462 161 rlineto
          -416 -447 rmoveto
          70 52 50 82 80 -52 48 -70 -71 -52 -48 -5 callgsubr
          278 -52 rmoveto
          70 52 50 82 80 -52 48 -70 -71 -52 -48 -5 callgsubr
          endchar
        </CharString>
        <CharString name="peseta">
          21 -21 230 75 93 74 90 74 hstem
          104 109 vstem
          213 305 rmoveto
          93 178 vlineto
          -61 -12 -46 -32 -74 hhcurveto
          257 vmoveto
          73 46 -26 -64 13 hvcurveto
          -178 90 hlineto
          350 -90 rmoveto
          -64 hlineto
          120 -16 -94 44 -120 hhcurveto
          -165 -165 hlineto
          -72 -5 rlineto
          -68 72 -398 109 230 56 vlineto
          118 96 53 115 17 hvcurveto
          63 hlineto
          endchar
        </CharString>
        <CharString name="pi">
          -12 94 317 92 hstem
          122 107 147 108 vstem
          376 134 rmoveto
          -91 33 -55 94 29 21 6 7 15 vhcurveto
          -14 86 rlineto
          -3 -12 -7 -2 -6 hhcurveto
          -30 -15 12 34 35 1 137 6 99 hvcurveto
          83 92 -476 hlineto
          -72 -5 rlineto
          -87 96 vlineto
          -121 -6 -139 -16 -139 vhcurveto
          115 -7 rlineto
          9 137 5 142 127 vvcurveto
          151 hlineto
          -95 -4 -130 -40 vvcurveto
          endchar
        </CharString>
        <CharString name="plus">
          288 84 hstem
          256 88 vstem
          256 99 rmoveto
          88 189 178 84 -178 189 -88 -189 -178 -84 178 hlineto
          endchar
        </CharString>
        <CharString name="plusminus">
          0 83 216 83 hstem
          256 88 vstem
          256 143 rmoveto
          88 156 178 83 -178 179 -88 -179 -178 -83 178 hlineto
          -178 -299 rmoveto
          444 83 -444 hlineto
          endchar
        </CharString>
        <CharString name="product">
          535 101 hstem
          38 116 291 117 vstem
          38 -120 rmoveto
          116 655 291 -655 117 756 -524 hlineto
          endchar
        </CharString>
        <CharString name="q">
          115 callgsubr
          -12 -20 61 callsubr
          hintmask 11101100
          53 245 rmoveto
          -162 84 -95 126 53 53 28 37 38 vhcurveto
          -5 -82 rlineto
          -165 116 vlineto
          hintmask 11011100
          685 -91 vlineto
          hintmask 11101100
          -10 -52 rlineto
          -3 hlineto
          43 -43 -44 21 -57 hhcurveto
          -66 callgsubr
          endchar
        </CharString>
        <CharString name="q.sups">
          14 callgsubr
          133 422 rmoveto
          -107 55 -63 84 34 34 17 21 25 vhcurveto
          -4 -52 rlineto
          -104 84 451 -66 vlineto
          -7 -32 rlineto
          -3 hlineto
          28 -28 -27 12 11 callsubr
        </CharString>
        <CharString name="question">
          -12 178 -157 -21 600 94 hstemhm
          199 174 4 111 hintmask 01101000
          230 244 rmoveto
          101 hlineto
          -15 122 172 26 130 vvcurveto
          103 -82 57 -113 -79 -64 -36 -50 -46 vhcurveto
          65 -60 rlineto
          32 33 37 20 46 hhcurveto
          57 35 -32 -48 -88 -170 -38 23 -138 hvcurveto
          hintmask 01110000
          -31 -166 169 callsubr
          hintmask 10110000
          53 -38 35 -49 vhcurveto
          hintmask 01110000
          -49 -38 -35 -53 hvcurveto
          endchar
        </CharString>
        <CharString name="questiondown">
          -191 94 422 178 0 -20 hstemhm
          113 111 4 174 hintmask 10110000
          371 247 rmoveto
          -101 hlineto
          15 -122 -172 -25 -131 vvcurveto
          -103 82 -57 113 78 65 36 50 46 vhcurveto
          -65 60 rlineto
          -31 -33 -37 -21 -46 hhcurveto
          -57 -35 32 48 88 170 38 -23 138 hvcurveto
          hintmask 10101000
          31 166 170 callsubr
          hintmask 11001000
          -53 38 -35 49 vhcurveto
          hintmask 10101000
          49 38 35 53 hvcurveto
          endchar
        </CharString>
        <CharString name="quotedbl">
          327 359 hstem
          107.5 137 111 137 vstem
          139 327 26 callsubr
          278 -231 26 callsubr
          endchar
        </CharString>
        <CharString name="quotedblbase">
          -21 142 callgsubr
          -229 -85 callsubr
          281 -63 -85 callsubr
          endchar
        </CharString>
        <CharString name="quotedblleft">
          319 171 hstem
          72 86 162 86 vstem
          232 698 -57 callsubr
          215 63 -57 callsubr
          endchar
        </CharString>
        <CharString name="quotedblright">
          527 142 callgsubr
          319 -85 callsubr
          281 -63 -85 callsubr
          endchar
        </CharString>
        <CharString name="quoteleft">
          319 171 hstem
          196 86 vstem
          356 698 -57 callsubr
          endchar
        </CharString>
        <CharString name="quoteright">
          527 171 hstem
          318 84 vstem
          243 319 -85 callsubr
          endchar
        </CharString>
        <CharString name="quotesinglbase">
          -21 171 hstem
          318 84 vstem
          243 -229 -85 callsubr
          endchar
        </CharString>
        <CharString name="quotesingle">
          327 359 hstem
          231.5 137 vstem
          263 327 26 callsubr
          endchar
        </CharString>
        <CharString name="r">
          21 60 callgsubr
          hintmask 11001000
          -68 callgsubr
          hintmask 10101000
          24 97 rlineto
          hintmask 11001000
          -39 callgsubr
          hintmask 10011000
          76 callsubr
          endchar
        </CharString>
        <CharString name="r.sups">
          520 73 hstem
          229 84 vstem
          229 260 rmoveto
          84 175 hlineto
          62 28 41 23 38 hhcurveto
          24 13 -3 -7 22 hvcurveto
          16 70 rlineto
          9 -18 -18 4 -27 hhcurveto
          -49 -46 -28 -53 -30 hvcurveto
          -2 hlineto
          -7 73 rlineto
          -69 hlineto
          endchar
        </CharString>
        <CharString name="racute">
          -33 callgsubr
          347 240 -3 callsubr
        </CharString>
        <CharString name="radical">
          -88 118 hstem
          48 544 vstem
          202 423 rmoveto
          -154 -65 22 -57 73 31 150 -420 rlineto
          82 hlineto
          217 908 rlineto
          -79 hlineto
          -168 -717 -5 -24 -4 -25 -4 -24 rlinecurve
          -4 hlineto
          -6 24 -6 25 -7 24 rrcurveto
          endchar
        </CharString>
        <CharString name="rcaron">
          -33 callgsubr
          162 82 rmoveto
          97 -50 callgsubr
        </CharString>
        <CharString name="registered">
          315 43 124 36 60 38 56 42 hstem
          106 47 70 49 60 53 60 48 vstem
          299 315 rmoveto
          107 87 82 117 118 -87 82 -107 -106 -87 -82 -118 -117 87 -82 106 hvcurveto
          43 vmoveto
          -84 -62 63 93 94 62 64 84 84 62 -64 -94 -93 -62 -63 -84 hvcurveto
          -76 59 rmoveto
          49 65 35 hlineto
          32 -65 rlineto
          54 hlineto
          -44 79 rlineto
          23 10 13 22 23 vvcurveto
          47 -36 18 -44 vhcurveto
          -82 hlineto
          49 -98 rmoveto
          60 25 vlineto
          24 11 -13 -17 -18 -13 -12 -24 hvcurveto
          endchar
        </CharString>
        <CharString name="ring">
          -15 callgsubr
        </CharString>
        <CharString name="s">
          -12 87 341 87 hstem
          92 115 211 115 vstem
          -101 callsubr
          endchar
        </CharString>
        <CharString name="s.sups">
          252 62 217 62 hstem
          173 84 115 83 vstem
          153 298 rmoveto
          -26 39 56 -20 56 hhcurveto
          98 53 46 57 60 -62 21 -56 17 hvcurveto
          -42 12 -38 10 23 vvcurveto
          19 17 14 42 34 29 -11 -17 27 vhcurveto
          39 50 rlineto
          21 -33 -44 19 -52 hhcurveto
          -89 -54 -41 -57 -55 62 -24 54 -17 hvcurveto
          42 -13 41 -11 -25 vvcurveto
          -21 -20 -15 -46 -44 -35 14 23 -35 vhcurveto
          endchar
        </CharString>
        <CharString name="sacute">
          -12 87 341 87 70 158 hstem
          92 115 211 115 vstem
          -101 callsubr
          328 594 -51 callgsubr
        </CharString>
        <CharString name="scaron">
          -12 87 341 87 70 158 hstem
          92 115 211 115 vstem
          -101 callsubr
          143 436 rmoveto
          98 -31 callgsubr
          -86 hlineto
          endchar
        </CharString>
        <CharString name="scircumflex">
          -12 87 341 87 70 158 hstem
          92 115 211 115 vstem
          -101 callsubr
          44 436 rmoveto
          86 -31 callsubr
          -98 hlineto
          endchar
        </CharString>
        <CharString name="section">
          -74 86 588 87 hstemhm
          81 98 -42 105 112 104 -37 98 hintmask 11100100
          179 342 rmoveto
          33 19 23 33 17 vhcurveto
          82 -44 108 -20 -76 vvcurveto
          -35 -17 -21 -34 -17 vhcurveto
          -81 46 -110 19 75 vvcurveto
          295 284 rmoveto
          31 -41 -59 30 -72 hhcurveto
          hintmask 11010100
          -106 -59 -62 -80 -34 11 -27 19 -21 hvcurveto
          hintmask 11101000
          -51 -28 -35 -47 -54 -186 273 16 -96 vvcurveto
          -32 -25 -24 -47 -48 -38 19 33 -34 vhcurveto
          -68 -60 rlineto
          -51 44 70 -27 74 hhcurveto
          110 66 63 84 33 -10 25 -16 21 hvcurveto
          hintmask 11010100
          54 31 33 40 61 182 -277 -6 90 vvcurveto
          29 20 21 46 41 38 -20 -27 33 vhcurveto
          endchar
        </CharString>
        <CharString name="semicolon">
          7 178 143 203 hstemhm
          201 198 -82 96 hintmask 11100000
          300 328 rmoveto
          57 42 43 59 57 -42 44 -57 -57 -42 -44 -57 -59 42 -43 57 hvcurveto
          -81 -543 rmoveto
          hintmask 11010000
          18 callsubr
        </CharString>
        <CharString name="seven">
          21 -21 539 97 hstem
          209 117 vstem
          209 hmoveto
          117 hlineto
          11 249 33 132 166 185 rrcurveto
          70 -470 -97 343 vlineto
          -139 -173 -49 -140 -12 -226 rrcurveto
          endchar
        </CharString>
        <CharString name="seven.dnom">
          238 23 callgsubr
          hmoveto
          -52 callsubr
        </CharString>
        <CharString name="seven.numr">
          566 23 callgsubr
          328 rmoveto
          -52 callsubr
        </CharString>
        <CharString name="seven.onum">
          478 98 hstem
          209 117 vstem
          209 -76 rmoveto
          117 hlineto
          12 256 32 137 166 188 rrcurveto
          71 -470 -98 343 vlineto
          -140 -176 -48 -147 -12 -231 rrcurveto
          endchar
        </CharString>
        <CharString name="seven.subs">
          68 23 callgsubr
          -170 rmoveto
          -52 callsubr
        </CharString>
        <CharString name="seven.sups">
          678 23 callgsubr
          440 rmoveto
          -52 callsubr
        </CharString>
        <CharString name="seveneighths">
          -12 57 218 57 246 70 hstemhm
          49 254 -191 89 101 118 callsubr
          hintmask 1110110010000000
          112 328 rmoveto
          89 hlineto
          hintmask 0011000000000000
          5 105 17 68 80 90 rrcurveto
          45 -254 -70 vlineto
          hintmask 0010100000000000
          158 hlineto
          hintmask 1110110010000000
          -60 -81 -29 -60 -6 -97 rrcurveto
          -28 -298 -79 callsubr
        </CharString>
        <CharString name="six">
          -12 88 234 84 160 94 hstem
          68 107 258 107 vstem
          318 76 rmoveto
          -71 -54 109 callgsubr
          -52 -43 -63 hvcurveto
          211 500 rmoveto
          111 callsubr
          117 -97 134 118 103 82 127 133 -84 64 -114 -56 -62 -29 -48 -49 hvcurveto
          177 5 78 60 90 hhcurveto
          45 45 -20 -28 29 hvcurveto
          endchar
        </CharString>
        <CharString name="six.dnom">
          -12 64 85 53 66 64 hstem
          169 78 109 77 vstem
          309 52 rmoveto
          -26 -27 16 43 -8 hvcurveto
          18 21 18 8 21 hhcurveto
          32 16 -16 -25 -27 -17 -17 -30 hvcurveto
          120 232 rmoveto
          21 -27 -33 15 -41 hhcurveto
          -100 -59 -71 -101 -96 57 -64 86 70 51 48 60 59 -37 35 -64 -34 -28 -12 -19 -23 hvcurveto
          60 5 28 37 53 hhcurveto
          25 20 -9 -14 17 hvcurveto
          endchar
        </CharString>
        <CharString name="six.numr">
          316 39 callsubr
          380 -77 callsubr
        </CharString>
        <CharString name="six.onum">
          -12 88 234 84 160 94 -72 -20 hstemhm
          69 107 258 106 hintmask 11101100
          318 76 rmoveto
          -71 -53 109 callgsubr
          -53 -43 -63 hvcurveto
          hintmask 11011100
          212 500 rmoveto
          hintmask 11101100
          111 callsubr
          116 -97 135 118 102 82 127 133 -83 64 -114 -56 -62 -28 -48 -49 hvcurveto
          176 6 77 60 89 hhcurveto
          46 44 -20 -28 30 hvcurveto
          endchar
        </CharString>
        <CharString name="six.subs">
          -182 39 callsubr
          -118 -77 callsubr
        </CharString>
        <CharString name="six.sups">
          428 39 callsubr
          492 -77 callsubr
        </CharString>
        <CharString name="slash">
          -160 870 hstem
          86 428 vstem
          514 710 rmoveto
          -99 hlineto
          -329 -870 rlineto
          99 hlineto
          endchar
        </CharString>
        <CharString name="slash.frac">
          30 594 hstem
          22 556 vstem
          84 30 -94 callsubr
          endchar
        </CharString>
        <CharString name="space">
          endchar
        </CharString>
        <CharString name="space.frac">
          endchar
        </CharString>
        <CharString name="sterling">
          0 98 180 74 202 94 hstemhm
          139 110 -56 101 hintmask 11101000
          230 98 rmoveto
          4 vlineto
          43 38 21 37 59 vvcurveto
          15 -1 13 -3 14 vhcurveto
          159 74 hlineto
          hintmask 11110000
          -179 hlineto
          -11 32 -10 31 33 45 callsubr
          -33 12 -35 13 -34 hvcurveto
          -90 -5 rlineto
          -69 vlineto
          hintmask 11101000
          114 hlineto
          3 -14 2 -13 -14 vvcurveto
          -73 -45 -61 -75 -32 vhcurveto
          -71 468 98 vlineto
          endchar
        </CharString>
        <CharString name="summation">
          -120 98 561 97 hstem
          64 489 vstem
          64 -50 rmoveto
          -70 489 98 -345 4 vlineto
          198 276 -189 277 rlineto
          4 310 97 -452 -70 vlineto
          211 -308 rlineto
          endchar
        </CharString>
        <CharString name="t">
          -12 92 320 91 hstem
          190 115 vstem
          -95 callsubr
          endchar
        </CharString>
        <CharString name="t.sups">
          252 66 201 66 hstem
          230 85 vstem
          230 392 rmoveto
          -84 35 -56 102 38 34 9 9 26 vhcurveto
          -15 61 rlineto
          -8 -19 -20 -5 -23 hhcurveto
          -53 -20 23 52 hvcurveto
          126 136 66 -136 88 -71 vlineto
          -10 -88 -77 -3 rlineto
          -63 73 vlineto
          endchar
        </CharString>
        <CharString name="tcaron">
          -12 92 320 91 57 77 hstem
          190 115 85.5 74 vstem
          -95 callsubr
          255 148 46 callsubr
        </CharString>
        <CharString name="thorn">
          115 callgsubr
          203 -20 hstem
          91 callgsubr
          vstem
          198 -40 rmoveto
          -3 86 rlineto
          -34 39 47 -24 48 hhcurveto
          111 107 97 168 152 -75 98 -126 -54 -54 -25 -40 -44 hvcurveto
          4 81 rlineto
          187 -116 -900 116 vlineto
          322 vmoveto
          38 callsubr
          -55 -58 -68 -30 -41 12 33 -36 hvcurveto
          endchar
        </CharString>
        <CharString name="three">
          -12 94 204 84 187 91 122 callsubr
          78 140 callsubr
          68 116 84 -68 54 -83 20 hvcurveto
          4 vlineto
          hintmask 11111000
          78 27 51 48 71 vvcurveto
          108 -93 60 -130 -82 -70 -32 -48 -58 vhcurveto
          60 -71 rlineto
          36 42 48 24 55 hhcurveto
          68 44 -32 -53 -59 -52 -43 166 callsubr
          -42 -66 -60 -58 -36 -78 -69 -58 31 39 -42 hvcurveto
          endchar
        </CharString>
        <CharString name="three.dnom">
          -12 8 callgsubr
          36 -91 callsubr
        </CharString>
        <CharString name="three.numr">
          316 8 callgsubr
          364 -91 callsubr
        </CharString>
        <CharString name="three.onum">
          -88 94 212 84 194 92 122 callsubr
          2 140 callsubr
          70 120 87 -68 53 -83 20 hvcurveto
          4 vlineto
          hintmask 11111000
          78 29 51 49 73 vvcurveto
          108 -93 63 -130 -82 -70 -32 -48 -58 vhcurveto
          60 -72 rlineto
          37 42 48 23 55 hhcurveto
          68 44 -34 -53 -62 -52 -45 166 callsubr
          -41 -69 -64 -58 -38 -78 -69 -58 31 39 -42 hvcurveto
          endchar
        </CharString>
        <CharString name="three.subs">
          -182 8 callgsubr
          -134 -91 callsubr
        </CharString>
        <CharString name="three.sups">
          428 8 callgsubr
          476 -91 callsubr
        </CharString>
        <CharString name="threeeighths">
          -12 57 218 57 -4 64 81 47 76 64 hstemhm
          199 84 -70 84 5 118 callsubr
          hintmask 0010001000000000
          38 364 rmoveto
          -46 callsubr
          -46 11 hvcurveto
          hintmask 0001110000000000
          -30 callsubr
          hintmask 0011001000000000
          -47 vlineto
          57 27 -14 -29 -26 -23 -12 -29 -32 -34 17 20 -20 -80 callgsubr
        </CharString>
        <CharString name="threequarters">
          0 121 -54 54 130 57 8 64 81 47 76 64 hstemhm
          199 84 -71 84 162 76 hintmask 1001111010000000
          594 565 rmoveto
          -62 59 -165 -201 42 -39 rlineto
          -371 -295 rmoveto
          62 -59 165 201 -42 39 rlineto
          -141 285 rmoveto
          16 20 27 13 23 hhcurveto
          31 16 -14 -20 -28 -25 -14 -46 hvcurveto
          hintmask 1001110110000000
          -47 vlineto
          58 26 -14 -29 -26 -22 -12 -29 -32 -34 17 20 -21 hvcurveto
          -37 -53 rlineto
          -46 callsubr
          -45 11 hvcurveto
          hintmask 1011111010000000
          39 14 16 52 callsubr
          -64 -50 -46 -17 -26 -28 vhcurveto
          331 -484 rmoveto
          44 67 39 63 rlineto
          3 120 callsubr
          76 187 rmoveto
          -103 hlineto
          hintmask 0101111010000000
          -134 -200 rlineto
          -41 161 vlineto
          hintmask 1001111010000000
          -67 76 vlineto
          hintmask 0101111010000000
          67 51 vlineto
          hintmask 1001111010000000
          54 -51 vlineto
          endchar
        </CharString>
        <CharString name="tilde">
          -36 callsubr
        </CharString>
        <CharString name="trademark">
          423 73 94 86 -71 71 hstemhm
          78 78 127 70 165 69 hintmask 10111100
          283 364 rmoveto
          70 116 hlineto
          -9 110 -9 callsubr
          62 -167 rlineto
          50 hlineto
          hintmask 11011100
          46 callgsubr
          rlineto
          hintmask 10111100
          -40 104 rlineto
          -87 hlineto
          -205 -312 rmoveto
          78 241 88 71 -253 -71 87 hlineto
          endchar
        </CharString>
        <CharString name="triagdn">
          24 510 hstem
          30 540 vstem
          298 24 rmoveto
          4 hlineto
          268 508 rlineto
          2 -540 -2 vlineto
          endchar
        </CharString>
        <CharString name="triagup">
          29 511 hstem
          30 540 vstem
          30 29 87 callgsubr
        </CharString>
        <CharString name="two">
          0 98 459 91 156 callgsubr
          -180 hlineto
          -35 -44 -4 -3 -37 hvcurveto
          148 133 115 116 113 vvcurveto
          118 -86 77 -131 -93 -64 -36 -62 -61 vhcurveto
          63 -64 rlineto
          38 38 47 33 55 hhcurveto
          80 42 -43 -67 -99 -121 -110 -199 -171 hvcurveto
          endchar
        </CharString>
        <CharString name="two.dnom">
          0 70 181 69 hstemhm
          177 250 -96 82 hintmask 11100000
          177 hmoveto
          250 70 hlineto
          hintmask 11010000
          -114 hlineto
          54 49 46 46 50 vvcurveto
          66 -47 39 -76 167 callgsubr
          18 23 14 22 hhcurveto
          34 19 -19 -31 hvcurveto
          hintmask 11100000
          -39 -61 -50 -93 -66 vhcurveto
          endchar
        </CharString>
        <CharString name="two.numr">
          328 38 callgsubr
          328 -61 callsubr
        </CharString>
        <CharString name="two.onum">
          0 98 398 92 156 callgsubr
          -158 hlineto
          -35 -45 -4 -3 -37 hvcurveto
          144 104 98 95 100 vvcurveto
          120 -86 78 -131 -93 -64 -36 -63 -61 vhcurveto
          63 -63 rlineto
          38 38 47 32 55 hhcurveto
          80 42 -43 -69 -81 -117 -104 -203 -132 hvcurveto
          endchar
        </CharString>
        <CharString name="two.subs">
          -170 38 callgsubr
          -170 -61 callsubr
        </CharString>
        <CharString name="two.sups">
          440 38 callgsubr
          440 -61 callsubr
        </CharString>
        <CharString name="twothirds">
          -12 64 81 47 76 64 8 70 181 69 hstemhm
          46 250 -96 83 178 84 -70 84 hintmask 1001110010000000
          46 328 rmoveto
          250 70 -114 hlineto
          hintmask 1001101010000000
          30 callsubr
          hintmask 1001110010000000
          -39 -61 -50 -93 -66 vhcurveto
          38 -344 -94 callsubr
          -278 -529 rmoveto
          -46 callsubr
          -46 11 hvcurveto
          hintmask 1111101100000000
          -30 callsubr
          hintmask 1101101010000000
          96 callsubr
        </CharString>
        <CharString name="u">
          -12 105 callsubr
          215 115 hintmask 10111000
          515 491 rmoveto
          -115 -105 callsubr
          hintmask 01111000
          19 callsubr
          endchar
        </CharString>
        <CharString name="u.sups">
          252 72 hstem
          151 85 129 84 vstem
          449 585 rmoveto
          -84 -220 hlineto
          -31 -26 -20 -10 -29 hhcurveto
          -40 -14 21 47 hvcurveto
          193 -85 -203 vlineto
          -82 33 -48 75 47 36 23 33 30 vhcurveto
          2 hlineto
          7 -48 rlineto
          68 hlineto
          endchar
        </CharString>
        <CharString name="uacute">
          96 callgsubr
          hintmask 10111100
          515 491 rmoveto
          -115 -105 callsubr
          hintmask 01111100
          19 callsubr
          -83 731 -3 callsubr
        </CharString>
        <CharString name="ubreve">
          -56 callgsubr
          104 65 45 callgsubr
          -29 67 144 67 -34 115 hintmask 10111001
          515 491 rmoveto
          -115 -105 callsubr
          hintmask 01110101
          19 callsubr
          -220 575 rmoveto
          hintmask 10110110
          94 41 73 72 4 42 callgsubr
          -44 -22 37 43 -6 hvcurveto
          -67 hlineto
          hintmask 01110101
          -72 4 41 -73 94 hhcurveto
          endchar
        </CharString>
        <CharString name="ucircumflex">
          96 callgsubr
          hintmask 10111100
          515 491 rmoveto
          -115 -105 callsubr
          hintmask 01111100
          19 callsubr
          -367 573 -42 callsubr
          -98 hlineto
          endchar
        </CharString>
        <CharString name="udieresis">
          -56 callgsubr
          108 135 45 callgsubr
          -59 133 73 132 -64 115 hintmask 10111001
          515 491 rmoveto
          -115 -105 callsubr
          hintmask 01110101
          19 callsubr
          -323 579 rmoveto
          40 16 callgsubr
          -40 -39 -27 -30 -38 -38 27 -29 39 hvcurveto
          hintmask 10111010
          206 hmoveto
          43 callgsubr
          -27 -30 -38 -38 27 -29 39 hvcurveto
          endchar
        </CharString>
        <CharString name="ugrave">
          96 callgsubr
          hintmask 10111100
          515 491 rmoveto
          -115 -105 callsubr
          hintmask 01111100
          19 callsubr
          -232 573 -17 callgsubr
        </CharString>
        <CharString name="uhorn">
          -12 105 callsubr
          215 115 4 91 hintmask 10110100
          504 599 -70 callgsubr
          -48 -40 -13 -42 -3 vhcurveto
          hintmask 10111000
          -37 -105 callsubr
          hintmask 01111000
          64 callsubr
          hintmask 10110100
          50 15 45 33 63 -34 callsubr
        </CharString>
        <CharString name="uhungarumlaut">
          -56 callgsubr
          101 147 0 callsubr
          hintmask 10111100
          515 491 rmoveto
          -115 -105 callsubr
          hintmask 01111100
          19 callsubr
          -332 572 74 callsubr
          89 -147 74 callsubr
          endchar
        </CharString>
        <CharString name="umacron">
          -56 callgsubr
          125 76 45 callgsubr
          -20 261 -26 115 hintmask 10111010
          515 491 rmoveto
          -115 -105 callsubr
          hintmask 01111010
          19 callsubr
          hintmask 10110100
          -350 596 9 callgsubr
          endchar
        </CharString>
        <CharString name="underscore">
          -152 90 hstem
          60 480 vstem
          60 -62 rmoveto
          -90 480 90 vlineto
          endchar
        </CharString>
        <CharString name="uni00470303">
          63 callsubr
          41 137 callsubr
          48 120 5 61 194 60 -53 105 hintmask 1110010010000000
          -102 callsubr
          hintmask 1111010100000000
          344 382 rmoveto
          hintmask 1110110100000000
          24 callgsubr
          -60 hlineto
          hintmask 1111010100000000
          -33 -6 -15 -15 -19 hhcurveto
          hintmask 1110101010000000
          -33 -33 48 -53 hhcurveto
          hintmask 1111001010000000
          -25 callgsubr
          hintmask 1110101010000000
          23 callsubr
          hintmask 1111010100000000
          34 32 -49 53 hhcurveto
          endchar
        </CharString>
        <CharString name="uni00670303">
          -57 callgsubr
          74 73 -73 127 10 callsubr
          -34 62 171 102 -26 111 hintmask 1011100110001000
          -20 callsubr
          hintmask 1101100101000100
          -67 callgsubr
          hintmask 1011100110001000
          -53 callgsubr
          hintmask 1011100100100100
          -88 callgsubr
          hintmask 1011100101001000
          -70 callsubr
          hintmask 1011010101001000
          -73 callsubr
          hintmask 1011100100101000
          -54 callsubr
          hintmask 1011100110001000
          54 callsubr
          hintmask 1011010101001000
          -79 callgsubr
          hintmask 1011100100011000
          -139 349 rmoveto
          62 hlineto
          99 callgsubr
          hintmask 1011101001001000
          31 127 callgsubr
          hintmask 1011100101001000
          57 -10 callsubr
          hintmask 1011101001001000
          148 callgsubr
          hintmask 1011100101001000
          -29 -30 54 -48 hhcurveto
          hintmask 1011100100011000
          -57 -36 -47 -80 -10 hvcurveto
          endchar
        </CharString>
        <CharString name="uni00670303.a">
          -38 callgsubr
          106 137 callgsubr
          53 117 232 116 hintmask 11100111
          -80 callsubr
          hintmask 11010111
          492 -91 vlineto
          hintmask 11100111
          -102 callgsubr
          -139 474 42 callsubr
          hintmask 11101011
          30 127 callgsubr
          hintmask 11100111
          58 -10 callsubr
          hintmask 11101011
          -38 -8 -13 -16 -21 hhcurveto
          hintmask 11100111
          78 callsubr
          -57 29 callsubr
        </CharString>
        <CharString name="uni00A0">
          endchar
        </CharString>
        <CharString name="uni00AD">
          12 callsubr
        </CharString>
        <CharString name="uni00AD.a">
          68 callgsubr
        </CharString>
        <CharString name="uni00B5">
          -12 94 -90 95 45 callgsubr
          215 108 hintmask 01110000
          70 -192 rmoveto
          116 hlineto
          -6 78 -2 54 -1 90 rrcurveto
          -32 22 34 -6 37 hhcurveto
          55 49 33 65 35 hvcurveto
          3 hlineto
          hintmask 10110000
          -69 13 29 -33 58 hhcurveto
          26 20 4 6 14 hvcurveto
          -14 86 rlineto
          -2 -9 -4 0 -5 hhcurveto
          -18 -14 10 28 100 4 148 4 123 hvcurveto
          -116 hlineto
          hintmask 01110000
          -311 vlineto
          -75 -42 -39 -18 -45 hhcurveto
          -61 -28 35 80 hvcurveto
          289 -115 vlineto
          endchar
        </CharString>
        <CharString name="uni0122">
          -223 50 161 64 callgsubr
          hstemhm
          48 120 158 86 23 105 hintmask 01111010
          -102 callsubr
          hintmask 11111110
          254 -370 22 callsubr
        </CharString>
        <CharString name="uni0123">
          -57 callgsubr
          168 50 10 callsubr
          45 85 69 102 -26 111 hintmask 1011100100110000
          -20 callsubr
          hintmask 1101100010101000
          -67 callgsubr
          hintmask 1011100100110000
          -53 callgsubr
          hintmask 1011100001101000
          -88 callgsubr
          hintmask 1011100010110000
          -70 callsubr
          hintmask 1011010010110000
          -73 callsubr
          hintmask 1011100001110000
          -54 callsubr
          hintmask 1011100100110000
          54 callsubr
          hintmask 1011011010110000
          -79 callgsubr
          49 315 rmoveto
          24 46 rlineto
          -30 83 callgsubr
          -47 31 -24 78 -9 vhcurveto
          endchar
        </CharString>
        <CharString name="uni0123.a">
          -38 callgsubr
          200 50 hstemhm
          53 117 61 85 86 116 hintmask 11100111
          -80 callsubr
          hintmask 11010111
          492 -91 vlineto
          hintmask 11100111
          -102 callgsubr
          49 440 rmoveto
          hintmask 11101111
          23 46 rlineto
          -29 83 callgsubr
          hintmask 11100111
          -47 30 -24 79 -9 vhcurveto
          endchar
        </CharString>
        <CharString name="uni012C">
          121 callgsubr
          51 61 16 callsubr
          -91 callgsubr
          216 607 rmoveto
          -69 callsubr
        </CharString>
        <CharString name="uni012D">
          107 callgsubr
          84 65 hstemhm
          208 66 23 115 6 67 26 callgsubr
          hintmask 11110100
          262 84 -51 callsubr
          endchar
        </CharString>
        <CharString name="uni0136">
          150 callsubr
          654 -20 hstem
          83 117 122 85 2 callgsubr
          215 -699 0 callgsubr
          -36 -11 -74 callsubr
          47 -30 110 callsubr
        </CharString>
        <CharString name="uni0137">
          150 callsubr
          491 -20 235 -20 hstem
          90 116 115 85 4 callgsubr
          207 -751 -58 callsubr
        </CharString>
        <CharString name="uni013B">
          -223 50 173 98 556 -20 hstem
          120 115 95 86 vstem
          -45 callgsubr
          186 -699 22 callsubr
        </CharString>
        <CharString name="uni013C">
          -223 50 161 114 callsubr
          17 85 hintmask 11110000
          -93 callgsubr
          hintmask 11111000
          263 -751 rmoveto
          -24 -46 rlineto
          30 -13 callsubr
          -36 -11 -74 callsubr
          47 -31 24 -78 9 vhcurveto
          endchar
        </CharString>
        <CharString name="uni0145">
          -223 50 173 39 callgsubr
          107 85 38 111 hintmask 10101101
          29 callgsubr
          hintmask 10110101
          -81 callgsubr
          hintmask 11001111
          -71 callsubr
          194 -699 rmoveto
          -24 -46 rlineto
          30 -13 callsubr
          -36 -11 -74 callsubr
          47 -31 24 -78 9 vhcurveto
          endchar
        </CharString>
        <CharString name="uni0146">
          -223 50 194 49 callgsubr
          103 85 30 116 hintmask 11101010
          -99 callgsubr
          -47 -46 vhcurveto
          -4 hlineto
          hintmask 11011110
          107 callsubr
          195 -536 -58 callsubr
        </CharString>
        <CharString name="uni014E">
          30 callgsubr
          39 61 hstem
          43 callsubr
          vstem
          -106 callsubr
          616 vmoveto
          -69 callsubr
        </CharString>
        <CharString name="uni014F">
          24 callsubr
          72 65 86 callgsubr
          -11 67 144 67 -11 119 hintmask 11110010
          -105 callgsubr
          hintmask 11101100
          128 330 -23 callsubr
        </CharString>
        <CharString name="uni0156">
          -223 50 194 159 callsubr
          hstem
          84 116 112 85 32 114 vstem
          264 -91 rmoveto
          30 -13 callsubr
          -36 -11 -74 callsubr
          47 -31 24 -78 9 vhcurveto
          -88 606 14 callsubr
          213 -75 rmoveto
          -75 callsubr
          131 hlineto
          endchar
        </CharString>
        <CharString name="uni0157">
          -223 50 194 60 callgsubr
          -53 85 hintmask 11100100
          -68 callgsubr
          hintmask 11010100
          24 97 rlineto
          hintmask 11100100
          -39 callgsubr
          hintmask 11001100
          76 callsubr
          hintmask 11100010
          39 -536 -58 callsubr
        </CharString>
        <CharString name="uni015E">
          -217 50 157 99 -78 -21 575 101 hstemhm
          87 117 92 86 44 118 hintmask 10111110
          316 396 rmoveto
          -59 23 -53 18 51 vvcurveto
          48 42 29 68 60 46 -21 -35 44 vhcurveto
          60 74 rlineto
          51 -54 -76 32 -80 hhcurveto
          -133 -94 -80 -104 -96 71 -51 69 -27 hvcurveto
          89 -39 rlineto
          hintmask 11011110
          65 -25 45 -17 -54 vvcurveto
          -51 -42 -33 -80 -64 -65 30 44 -49 vhcurveto
          -68 -79 57 -54 74 -33 80 -7 rlinecurve
          -33 -65 rlineto
          -10 callgsubr
          17 36 rlineto
          129 13 75 82 97 vvcurveto
          95 -59 49 -83 33 vhcurveto
          endchar
        </CharString>
        <CharString name="uni015F">
          -217 50 156 86 341 87 hstemhm
          92 115 97 85 29 115 hintmask 11110100
          513 438 rmoveto
          33 -50 -74 32 -80 hhcurveto
          -139 -78 -61 -86 -74 87 -42 94 -25 hvcurveto
          99 -26 46 -21 -34 vvcurveto
          -34 -35 -25 -77 -76 -59 24 38 -55 vhcurveto
          -54 -73 rlineto
          hintmask 11111100
          55 -38 77 -31 82 -6 -33 -64 rcurveline
          43 -11 18 -14 -21 vvcurveto
          -27 -36 -13 -74 callsubr
          41 -25 20 -34 12 vhcurveto
          17 36 rlineto
          hintmask 11110100
          121 12 65 63 75 vvcurveto
          81 -74 37 -114 30 vhcurveto
          -79 20 -59 19 35 vvcurveto
          31 27 23 76 56 50 -20 -29 44 vhcurveto
          endchar
        </CharString>
        <CharString name="uni0162">
          -217 50 188 -21 556 98 hstemhm
          242 116 -70 86 hintmask 11110000
          358 hmoveto
          556 206 98 -528 -98 206 -556 vlineto
          hintmask 11101000
          24 hlineto
          -38 -75 rlineto
          -10 callgsubr
          hintmask 11110000
          22 46 rlineto
          endchar
        </CharString>
        <CharString name="uni0163">
          -217 50 155 92 -67 -21 408 91 hstemhm
          190 115 61 85 hintmask 11011000
          408 -12 rmoveto
          52 3 49 12 39 13 -22 84 rcurveline
          -12 -32 -34 -8 -42 hhcurveto
          -83 -30 37 81 hvcurveto
          202 224 91 -224 134 -95 vlineto
          -15 -134 -136 -5 rlineto
          -86 131 -202 vlineto
          hintmask 10111100
          -110 39 -79 110 -17 vhcurveto
          -34 -67 rlineto
          43 -11 18 -14 -21 vvcurveto
          -27 -36 -13 -74 callsubr
          hintmask 11011100
          41 -25 20 -34 12 vhcurveto
          endchar
        </CharString>
        <CharString name="uni0180">
          -12 95 -62 -21 388 95 81 56 -56 59 -59 142 hstemhm
          91 callgsubr
          hintmask 10100111
          198 329 rmoveto
          41 40 39 18 37 hhcurveto
          80 34 -55 -91 -105 -53 -54 -69 -31 -41 12 33 -36 hvcurveto
          376 vmoveto
          60 196 vlineto
          hintmask 10101011
          59 -196 vlineto
          hintmask 10100111
          83 -116 vlineto
          hintmask 10110011
          -84 vlineto
          -69 -4 rlineto
          hintmask 01100111
          -54 69 -564 91 vlineto
          hintmask 10100111
          123 callgsubr
          93 163 145 -74 94 -127 -53 -56 -25 -40 -43 hvcurveto
          endchar
        </CharString>
        <CharString name="uni018F">
          -12 99 186.5 85.5 208 99 hstem
          60 118 260 117 vstem
          438 274 rmoveto
          -119 -12 -50 -68 -71 hhcurveto
          -71 -48 67 119 -8 hvcurveto
          1 241 rmoveto
          30 30 38 23 50 hhcurveto
          88 48 -75 -133 6 hvcurveto
          -377 hlineto
          -1 -12 -1 -12 -11 vvcurveto
          -206 97 -130 148 149 101 129 211 212 -97 126 -149 -80 -59 -31 -42 -42 vhcurveto
          endchar
        </CharString>
</ttFont>
